# Blender v2.80 (sub 75) OBJ File: 'mesh_.blend'
# www.blender.org
mtllib mesh_.mtl
o mesh
v -3.546981 7.254323 -2.475890
v -2.708149 5.664198 -0.038489
v -3.556659 1.259790 -0.199835
v -4.282695 1.781035 -2.410159
v -5.228359 7.404932 -2.475890
v -5.734768 1.781035 -2.410159
v -6.460804 1.259790 -0.199835
v -6.116917 5.944027 -0.038489
v -5.734768 2.364704 2.135558
v -5.399242 4.831560 2.017088
v -4.282695 2.364704 2.135557
v -3.717865 4.680947 2.017088
v -1.561020 10.723629 0.600201
v -2.528447 11.575476 -2.081134
v -1.734652 16.930048 -1.976778
v -0.557432 16.623522 1.057236
v -4.564367 11.900993 -2.061240
v -4.097606 17.528637 -1.906237
v -5.694143 11.317253 0.606662
v -5.404318 17.742085 1.104951
v -4.589229 11.771819 3.317813
v -4.089332 17.707863 3.818947
v -2.576694 11.453953 3.334311
v -1.734652 17.101715 3.874512
v -3.064489 9.014112 -2.235221
v -2.108648 8.184570 0.437458
v -4.891656 9.298206 -2.229495
v -5.869503 8.721563 0.447543
v -4.875241 7.996796 2.635834
v -3.020443 7.705490 2.630615
v 0.000000 16.991337 -2.039884
v 0.000000 16.942818 1.050762
v 0.000000 17.159286 3.862682
v -4.847604 20.462980 1.149161
v -4.019903 20.088511 -2.073191
v -3.606743 20.075321 4.035351
v -1.734161 19.852779 4.442438
v 0.000000 19.760342 4.537111
v -3.135686 18.678204 -2.343416
v -1.734652 18.370073 -2.521102
v 0.000000 18.444891 -2.549649
v -1.734617 19.979443 -2.598103
v 0.000000 20.064657 -2.562800
v -4.282695 1.091677 -1.961382
v -5.734768 1.091677 -1.961382
v -5.734768 1.873905 1.934972
v -4.282695 1.873905 1.934972
v -5.734768 1.295661 3.741213
v -4.282695 1.295661 3.741213
v -3.556659 -0.030962 -0.199835
v -4.282695 -0.030962 -1.961382
v -5.734768 -0.030962 -1.961382
v -6.460804 -0.030962 -0.199835
v -3.656503 -0.030962 2.131492
v -3.656503 1.149223 2.010264
v -6.360960 -0.030962 2.131492
v -6.360960 1.149223 2.010264
v -5.734768 0.177865 3.802068
v -4.282695 0.177865 3.802068
v -5.411325 21.147575 1.140991
v -4.511179 20.819080 -2.472664
v -4.095999 20.807287 4.378182
v -1.980627 20.413921 5.221817
v 0.000000 20.274704 5.455624
v -1.941958 20.684366 -3.088966
v 0.000000 20.771093 -3.016308
v -3.919865 26.577398 -2.472094
v -4.763041 26.139198 0.606102
v -5.510267 29.046444 0.360625
v -4.822432 29.922764 -2.548810
v -3.960659 26.648993 3.246638
v -4.859671 29.980919 2.703479
v -1.959655 26.838518 4.400739
v -2.441004 30.412886 3.910785
v 0.000000 26.819643 4.802104
v 0.000000 30.426586 4.477606
v -1.905561 30.010338 -3.607411
v -1.646872 26.603363 -3.240832
v 0.000000 29.980009 -3.608409
v 0.000000 26.596684 -3.210297
v -5.175264 22.935974 0.919043
v -4.312479 22.833059 -2.556087
v -4.039143 22.860533 4.017741
v -1.973412 22.622490 5.011144
v 0.000000 22.390522 5.318349
v -1.840153 22.727894 -3.166507
v 0.000000 22.782621 -3.048214
v -2.768764 33.517159 3.267219
v -5.510617 33.099392 2.320006
v 0.000000 33.435001 3.722192
v -5.473379 33.146751 -2.355165
v -2.233321 33.783340 -2.938258
v 0.000000 33.664989 -2.939256
v -3.984347 34.915604 0.094182
v -6.239772 33.991657 0.095478
v -7.944954 30.393373 -2.333175
v -8.772955 29.573965 0.002099
v -8.724301 30.295567 1.812980
v -8.961595 32.226879 1.520733
v -9.311522 33.023258 -0.237718
v -8.161953 32.390476 -2.186903
v -15.113148 30.039490 -0.290769
v -11.219447 30.155703 -1.606050
v -10.630458 29.416340 0.112262
v -15.092610 29.697063 1.010151
v -10.604539 30.012356 1.626188
v -15.149399 30.037228 1.892714
v -10.986952 31.877630 1.382568
v -15.305656 31.104977 1.757883
v -11.321605 32.566051 -0.111392
v -15.404079 31.421268 0.814717
v -11.507534 31.632317 -1.507321
v -15.217842 30.948330 -0.226096
v -9.621381 30.141983 -2.122745
v -9.701706 29.495152 0.057181
v -9.915731 32.093136 -1.985917
v -10.316564 32.794655 -0.174555
v -4.732235 9.884307 2.976824
v -5.781823 10.019409 0.527103
v -2.798569 9.579720 2.982463
v -1.834834 9.454100 0.518829
v 0.000000 34.394073 3.475582
v -1.766563 34.924068 2.964351
v -1.424933 35.466148 -1.456906
v 0.000000 35.331890 -1.975699
v -2.753694 35.572067 0.202762
v -18.957848 30.126223 1.769856
v -18.836336 29.820324 2.102937
v -18.094595 30.142857 2.108402
v -18.264502 30.449139 1.751631
v -18.433334 30.047371 1.357151
v -18.852987 29.860119 1.398954
v -18.123245 29.756187 1.746451
v -18.885983 29.459486 1.730472
v -19.226511 29.633440 2.090943
v -19.375847 29.882433 1.765646
v -19.582462 29.578655 1.753522
v -19.398647 29.393618 2.076946
v -19.242409 29.671501 1.408134
v -19.414318 29.431170 1.403367
v -19.899223 29.118416 1.735232
v -19.728327 28.969957 2.027249
v -19.742435 29.003761 1.420918
v -20.081263 28.880123 1.726181
v -19.960487 28.733339 1.988042
v -19.973143 28.763649 1.444320
v -19.420897 28.879450 1.710776
v -19.866680 28.549679 1.702764
v -19.190720 29.200974 1.723345
v -19.015854 29.983789 0.807529
v -18.954805 29.767574 1.239608
v -18.383030 30.369629 0.874983
v -18.278587 29.931835 0.554854
v -18.789310 29.650465 0.534708
v -18.109917 29.702421 1.019432
v -18.873743 29.314783 0.952568
v -19.324062 29.519325 1.181559
v -19.408735 29.676907 0.764966
v -19.583111 29.337835 0.779894
v -19.469742 29.249327 1.186766
v -19.161774 29.405792 0.498394
v -19.309671 29.137346 0.512935
v -19.851255 28.823244 0.801718
v -19.745764 28.763056 1.165249
v -19.601814 28.662346 0.559237
v -20.008022 28.554562 0.809125
v -19.944654 28.482374 1.130515
v -19.815659 28.392128 0.587478
v -19.347725 28.647707 0.950501
v -19.759010 28.249535 0.918969
v -19.151445 29.008327 0.937197
v -18.661388 29.799454 0.078881
v -18.598658 29.658945 0.490941
v -18.136311 30.207613 0.104309
v -17.935837 29.801628 -0.166868
v -18.427385 29.489517 -0.126931
v -17.816877 29.637983 0.334009
v -18.484449 29.230061 0.284476
v -18.908260 29.405499 0.463768
v -18.989639 29.493299 0.071510
v -19.122540 29.181927 0.119978
v -19.019321 29.156746 0.496555
v -18.741398 29.240965 -0.135618
v -18.854666 28.994389 -0.094897
v -19.326616 28.710365 0.192609
v -19.231787 28.704443 0.527969
v -19.083359 28.558092 -0.005206
v -19.448475 28.461712 0.226940
v -19.389854 28.436838 0.525939
v -19.256632 28.305473 0.047385
v -18.859207 28.606861 0.351146
v -19.200348 28.218136 0.362876
v -18.708849 28.938459 0.301978
v -18.153734 29.646652 -0.681079
v -18.157465 29.577383 -0.284097
v -17.738909 30.036381 -0.580940
v -17.435921 29.728365 -0.711802
v -17.907700 29.347511 -0.786800
v -17.478069 29.552179 -0.305927
v -18.014349 29.169800 -0.391886
v -18.423306 29.340055 -0.316326
v -18.441151 29.362335 -0.690380
v -18.562113 29.087698 -0.623543
v -18.522627 29.120308 -0.268638
v -18.182968 29.115353 -0.804716
v -18.285360 28.898481 -0.750785
v -18.746851 28.673035 -0.523672
v -18.709324 28.716593 -0.208582
v -18.494951 28.516171 -0.644206
v -18.856699 28.452717 -0.476364
v -18.845989 28.472828 -0.195725
v -18.653313 28.292690 -0.587272
v -18.346226 28.615204 -0.299924
v -18.647219 28.258467 -0.283909
v -18.210596 28.907509 -0.367664
v -17.132740 28.786747 2.516560
v -17.310467 29.029350 2.786156
v -17.644083 28.764126 2.772554
v -17.494326 28.480989 2.532306
v -17.526375 29.282221 2.558758
v -17.903008 28.998169 2.575694
v -17.823687 28.680811 2.235957
v -17.197374 29.157084 2.135156
v -17.989584 28.477694 2.894787
v -17.853170 28.251238 2.710835
v -18.180504 28.684376 2.739001
v -18.092852 28.423307 2.520384
v -16.435053 29.145939 2.356320
v -16.673994 29.535271 2.706264
v -17.142410 29.897421 2.442188
v -15.636202 29.496246 2.054018
v -15.849872 29.975794 2.412953
v -16.340441 29.625057 0.928694
v -16.940792 29.388531 1.949454
v -16.300880 30.795719 2.035405
v -17.578663 30.672169 1.820976
v -17.581419 30.098179 2.237364
v -16.240578 30.663017 -0.528032
v -15.995254 29.912518 -0.332092
v -16.871792 29.722647 -0.375472
v -17.151491 30.381603 -0.653896
v -17.276220 29.745766 0.779504
v -16.479477 31.016754 0.751213
v -17.641310 30.676403 0.575803
v -17.520670 29.784227 1.912411
v 0.000000 38.021866 -1.960884
v -1.424933 37.909237 -1.461677
v -1.766563 37.236427 3.502318
v -2.542145 37.838490 0.621452
v 1.424933 37.909237 -1.461677
v 1.424933 35.466148 -1.456906
v 1.766563 37.236427 3.502318
v 1.766563 34.924068 2.964351
v 2.753694 35.572067 0.202762
v 2.542145 37.838490 0.621452
v 0.000000 41.964684 0.338974
v 0.000000 40.449066 -1.384267
v -1.272781 40.089550 -0.904646
v -1.425357 41.373253 0.423327
v 1.425357 41.373253 0.423327
v 1.272781 40.089550 -0.904646
v 0.000000 41.248009 2.474012
v -1.501645 40.789524 2.306089
v 1.501644 40.789524 2.306089
v -1.577933 39.498699 3.780876
v 0.000000 39.830353 4.044491
v 1.577932 39.498699 3.780877
v -2.270699 39.805794 1.073759
v 2.270699 39.805794 1.073759
v 0.000000 39.168518 4.062956
v -1.126273 38.894321 3.846283
v 1.126273 38.894321 3.846283
v -0.410440 35.574528 4.790024
v -0.922499 35.420216 3.260645
v 0.000000 35.137295 3.328995
v 0.000000 35.364399 4.734136
v 0.922499 35.420216 3.260645
v 0.410440 35.574528 4.790024
v -1.194403 36.369747 3.568521
v -0.386629 36.035603 5.062070
v 0.000000 37.690147 4.682681
v -1.066867 37.455856 4.456545
v 0.000000 36.172535 5.250728
v 0.386629 36.035603 5.062070
v 1.066867 37.455856 4.456545
v 0.000000 35.397045 4.879832
v -0.299488 35.550373 4.935719
v 0.299488 35.550373 4.935719
v -0.282114 35.873558 5.122185
v 0.282113 35.873558 5.122185
v 0.000000 35.985130 5.265888
v -0.403800 35.353901 5.119855
v 0.000000 35.147167 5.044502
v 0.403800 35.353901 5.119855
v -0.380374 35.789650 5.371267
v 0.380374 35.789650 5.371266
v 0.000000 35.940083 5.565020
v 1.051466 35.835068 4.071711
v 0.847410 35.835068 4.386149
v 2.195339 36.816021 4.541873
v 2.375309 36.094269 4.160374
v 1.687461 36.158699 3.713993
v 1.507491 36.880451 4.095491
v 1.740258 36.816021 5.243128
v 1.052410 36.880451 4.796745
v 1.465147 36.094269 5.562883
v 0.777298 36.158699 5.116501
v 1.645116 35.372517 5.181384
v 0.957268 35.436947 4.735002
v 2.100198 35.372517 4.480130
v 1.412349 35.436947 4.033748
v 1.174824 36.158699 3.928335
v 1.094127 36.482330 4.099397
v 0.766713 36.158699 4.557211
v 0.890071 36.482330 4.413835
v -0.403800 34.994831 5.656153
v 0.000000 34.788097 5.580799
v 0.403800 34.994831 5.656153
v -0.380374 35.430576 5.907564
v 0.380374 35.430576 5.907563
v 0.000000 35.581009 6.101317
v 3.546981 7.254323 -2.475891
v 4.282695 1.781035 -2.410159
v 3.556659 1.259790 -0.199835
v 2.708149 5.664198 -0.038489
v 5.228359 7.404932 -2.475890
v 5.734768 1.781035 -2.410159
v 6.116917 5.944027 -0.038489
v 6.460804 1.259790 -0.199835
v 5.399242 4.831560 2.017088
v 5.734768 2.364704 2.135558
v 3.717865 4.680947 2.017088
v 4.282695 2.364704 2.135557
v 1.561020 10.723629 0.600201
v 0.557432 16.623522 1.057236
v 1.734652 16.930048 -1.976778
v 2.528447 11.575476 -2.081134
v 4.097606 17.528637 -1.906237
v 4.564367 11.900993 -2.061240
v 5.404318 17.742085 1.104951
v 5.694143 11.317253 0.606662
v 4.089332 17.707863 3.818947
v 4.589229 11.771819 3.317813
v 1.734652 17.101715 3.874512
v 2.576694 11.453953 3.334311
v 2.108648 8.184570 0.437458
v 3.064489 9.014112 -2.235221
v 4.891656 9.298206 -2.229495
v 5.869503 8.721563 0.447543
v 4.875241 7.996796 2.635834
v 3.020443 7.705490 2.630615
v 4.847604 20.462980 1.149161
v 4.019903 20.088511 -2.073191
v 3.606743 20.075321 4.035351
v 1.734161 19.852779 4.442438
v 3.135686 18.678204 -2.343416
v 1.734652 18.370073 -2.521102
v 1.734617 19.979443 -2.598103
v 4.282695 1.091677 -1.961382
v 5.734768 1.091677 -1.961382
v 5.734768 1.873905 1.934972
v 4.282695 1.873905 1.934972
v 5.734768 1.295661 3.741213
v 4.282695 1.295661 3.741213
v 3.556659 -0.030962 -0.199835
v 4.282695 -0.030962 -1.961381
v 5.734768 -0.030962 -1.961382
v 6.460804 -0.030962 -0.199835
v 3.656503 -0.030962 2.131492
v 3.656503 1.149223 2.010264
v 6.360960 1.149223 2.010264
v 6.360960 -0.030962 2.131492
v 5.734768 0.177865 3.802068
v 4.282695 0.177865 3.802068
v 5.411325 21.147575 1.140991
v 4.511179 20.819080 -2.472664
v 4.095999 20.807287 4.378182
v 1.980627 20.413921 5.221815
v 1.941958 20.684366 -3.088966
v 3.919865 26.577398 -2.472094
v 4.822432 29.922764 -2.548810
v 5.510267 29.046444 0.360625
v 4.763041 26.139198 0.606102
v 4.859671 29.980919 2.703479
v 3.960659 26.648993 3.246638
v 2.441004 30.412886 3.910785
v 1.959655 26.838518 4.400739
v 1.905561 30.010338 -3.607411
v 1.646872 26.603363 -3.240832
v 4.312479 22.833059 -2.556088
v 5.175264 22.935974 0.919043
v 4.039143 22.860533 4.017741
v 1.973412 22.622490 5.011144
v 1.840153 22.727894 -3.166506
v 2.768764 33.517159 3.267219
v 5.510617 33.099392 2.320006
v 5.473379 33.146751 -2.355165
v 2.233321 33.783340 -2.938258
v 3.984346 34.915604 0.094182
v 6.239772 33.991657 0.095478
v 7.944954 30.393373 -2.333175
v 8.772955 29.573965 0.002099
v 8.724301 30.295567 1.812980
v 8.961595 32.226879 1.520733
v 9.311522 33.023258 -0.237718
v 8.161953 32.390476 -2.186903
v 15.113148 30.039490 -0.290769
v 15.092610 29.697063 1.010151
v 10.630458 29.416340 0.112262
v 11.219447 30.155703 -1.606050
v 15.149399 30.037228 1.892714
v 10.604539 30.012356 1.626188
v 15.305656 31.104977 1.757883
v 10.986952 31.877630 1.382568
v 15.404079 31.421268 0.814717
v 11.321605 32.566051 -0.111391
v 15.217842 30.948330 -0.226096
v 11.507534 31.632317 -1.507320
v 9.621381 30.141983 -2.122745
v 9.701706 29.495152 0.057181
v 10.316564 32.794655 -0.174554
v 9.915731 32.093136 -1.985916
v 5.781823 10.019409 0.527103
v 4.732235 9.884307 2.976824
v 2.798569 9.579720 2.982463
v 1.834834 9.454100 0.518830
v 18.957848 30.126223 1.769856
v 18.264502 30.449139 1.751631
v 18.094595 30.142857 2.108402
v 18.836336 29.820324 2.102937
v 18.852987 29.860119 1.398954
v 18.433334 30.047371 1.357151
v 18.885983 29.459486 1.730472
v 18.123245 29.756187 1.746451
v 19.226511 29.633440 2.090943
v 19.398647 29.393618 2.076946
v 19.582462 29.578655 1.753522
v 19.375847 29.882433 1.765646
v 19.414318 29.431170 1.403367
v 19.242409 29.671501 1.408134
v 19.728327 28.969957 2.027249
v 19.899223 29.118416 1.735233
v 19.742435 29.003761 1.420918
v 19.960487 28.733339 1.988042
v 20.081263 28.880123 1.726181
v 19.973143 28.763649 1.444319
v 19.866680 28.549679 1.702764
v 19.420897 28.879450 1.710776
v 19.190720 29.200974 1.723345
v 19.015854 29.983789 0.807529
v 18.383030 30.369629 0.874983
v 18.954805 29.767574 1.239608
v 18.789310 29.650465 0.534708
v 18.278587 29.931835 0.554854
v 18.873743 29.314783 0.952568
v 18.109917 29.702421 1.019432
v 19.324062 29.519325 1.181559
v 19.469742 29.249327 1.186766
v 19.583111 29.337835 0.779894
v 19.408735 29.676907 0.764966
v 19.309671 29.137346 0.512935
v 19.161774 29.405792 0.498394
v 19.745764 28.763056 1.165249
v 19.851255 28.823244 0.801718
v 19.601814 28.662346 0.559237
v 19.944654 28.482374 1.130515
v 20.008022 28.554562 0.809125
v 19.815659 28.392128 0.587477
v 19.759010 28.249535 0.918969
v 19.347725 28.647707 0.950501
v 19.151445 29.008327 0.937197
v 18.661388 29.799454 0.078881
v 18.136311 30.207613 0.104309
v 18.598658 29.658945 0.490941
v 18.427385 29.489517 -0.126931
v 17.935837 29.801628 -0.166868
v 18.484449 29.230061 0.284476
v 17.816877 29.637983 0.334009
v 18.908260 29.405499 0.463768
v 19.019321 29.156746 0.496555
v 19.122540 29.181927 0.119978
v 18.989639 29.493299 0.071510
v 18.854666 28.994389 -0.094897
v 18.741398 29.240965 -0.135618
v 19.231787 28.704443 0.527969
v 19.326616 28.710365 0.192609
v 19.083359 28.558092 -0.005206
v 19.389854 28.436838 0.525939
v 19.448475 28.461712 0.226941
v 19.256632 28.305473 0.047385
v 19.200348 28.218136 0.362876
v 18.859207 28.606861 0.351146
v 18.708849 28.938459 0.301978
v 18.153734 29.646652 -0.681079
v 17.738909 30.036381 -0.580940
v 18.157465 29.577383 -0.284097
v 17.907700 29.347511 -0.786800
v 17.435921 29.728365 -0.711802
v 18.014349 29.169800 -0.391886
v 17.478069 29.552179 -0.305927
v 18.423306 29.340055 -0.316326
v 18.522627 29.120308 -0.268638
v 18.562113 29.087698 -0.623543
v 18.441151 29.362335 -0.690380
v 18.285360 28.898481 -0.750785
v 18.182968 29.115353 -0.804716
v 18.709324 28.716593 -0.208582
v 18.746851 28.673035 -0.523672
v 18.494951 28.516171 -0.644206
v 18.845989 28.472828 -0.195725
v 18.856699 28.452717 -0.476364
v 18.653313 28.292690 -0.587272
v 18.647219 28.258467 -0.283909
v 18.346226 28.615204 -0.299924
v 18.210596 28.907509 -0.367664
v 17.132740 28.786747 2.516560
v 17.494326 28.480989 2.532306
v 17.644083 28.764126 2.772554
v 17.310467 29.029350 2.786156
v 17.903008 28.998169 2.575694
v 17.526375 29.282221 2.558758
v 17.823687 28.680811 2.235957
v 17.197374 29.157084 2.135156
v 17.853170 28.251238 2.710835
v 17.989584 28.477694 2.894787
v 18.180504 28.684376 2.739001
v 18.092852 28.423307 2.520384
v 16.435053 29.145939 2.356320
v 16.673994 29.535271 2.706264
v 17.142410 29.897421 2.442188
v 15.636202 29.496246 2.054018
v 15.849872 29.975794 2.412953
v 16.340441 29.625057 0.928694
v 16.940792 29.388531 1.949454
v 16.300880 30.795719 2.035405
v 17.581419 30.098179 2.237364
v 17.578663 30.672169 1.820976
v 16.240578 30.663017 -0.528032
v 17.151491 30.381603 -0.653896
v 16.871792 29.722647 -0.375472
v 15.995253 29.912518 -0.332092
v 17.276220 29.745766 0.779505
v 17.641310 30.676403 0.575803
v 16.479477 31.016754 0.751213
v 17.520670 29.784227 1.912411
v -20.115313 28.689281 1.716336
v -20.021755 28.356897 0.838715
v -19.446720 28.284895 0.275966
v -18.859247 28.298580 -0.406701
v -18.131639 28.378532 2.787313
v 1.194404 36.369747 3.568521
v 0.000000 35.151745 5.875654
v 20.115313 28.689281 1.716335
v 20.021755 28.356897 0.838715
v 19.446720 28.284895 0.275966
v 18.859247 28.298580 -0.406701
v 18.131639 28.378532 2.787313
vt 0.685955 0.161590
vt 0.635015 0.139310
vt 0.636155 0.029584
vt 0.687354 0.051859
vt 0.734629 0.163080
vt 0.734875 0.051752
vt 0.806450 0.030700
vt 0.806749 0.140026
vt 0.873700 0.053805
vt 0.873143 0.120131
vt 0.916044 0.054130
vt 0.916274 0.120072
vt 0.977488 0.139234
vt 0.976928 0.032458
vt 0.632722 0.277491
vt 0.683873 0.292870
vt 0.675441 0.423013
vt 0.622912 0.399773
vt 0.734793 0.293339
vt 0.732420 0.434157
vt 0.806849 0.280427
vt 0.806824 0.440252
vt 0.872593 0.308747
vt 0.865538 0.447194
vt 0.915918 0.308549
vt 0.925686 0.438774
vt 0.977949 0.279838
vt 0.985246 0.407945
vt 0.684846 0.222478
vt 0.633654 0.211965
vt 0.734791 0.222171
vt 0.807144 0.213789
vt 0.873015 0.214173
vt 0.916048 0.213922
vt 0.976502 0.214235
vt 0.621116 0.429572
vt 0.614840 0.407679
vt 0.994984 0.417422
vt 0.979676 0.441274
vt 0.806638 0.508448
vt 0.734654 0.507298
vt 0.864001 0.508270
vt 0.923620 0.508714
vt 0.976229 0.509915
vt 0.706243 0.465891
vt 0.673677 0.464064
vt 0.627262 0.465307
vt 0.679364 0.508009
vt 0.633199 0.509480
vt 0.686554 0.029627
vt 0.736066 0.029754
vt 0.873883 0.031900
vt 0.916070 0.031934
vt 0.188397 0.832610
vt 0.195899 0.860038
vt 0.155411 0.878472
vt 0.144549 0.838770
vt 0.164480 0.955042
vt 0.136411 0.992264
vt 0.115114 0.975268
vt 0.139712 0.935286
vt 0.038275 0.739136
vt 0.070790 0.751968
vt 0.061195 0.777937
vt 0.028670 0.765101
vt 0.113524 0.768599
vt 0.102393 0.798808
vt 0.200168 0.908844
vt 0.174369 0.895032
vt 0.167318 0.788710
vt 0.152320 0.814416
vt 0.207469 0.818179
vt 0.219465 0.862033
vt 0.077003 0.823496
vt 0.094409 0.867111
vt 0.024783 0.867111
vt 0.042190 0.823496
vt 0.027177 0.924833
vt 0.092016 0.924833
vt 0.077003 0.966517
vt 0.042190 0.966517
vt 0.247041 0.967938
vt 0.334193 0.964190
vt 0.337650 0.985852
vt 0.253730 0.990064
vt 0.325361 0.166480
vt 0.243998 0.179629
vt 0.248642 0.157202
vt 0.326448 0.144938
vt 0.376629 0.155263
vt 0.375102 0.131223
vt 0.449162 0.149672
vt 0.448930 0.123409
vt 0.394542 0.963783
vt 0.398828 0.985243
vt 0.449869 0.959150
vt 0.449919 0.980457
vt 0.328715 0.819779
vt 0.254877 0.842757
vt 0.232842 0.780535
vt 0.294605 0.727524
vt 0.229833 0.373460
vt 0.249289 0.304981
vt 0.315408 0.314959
vt 0.286511 0.409712
vt 0.370665 0.314560
vt 0.363813 0.403429
vt 0.448970 0.311104
vt 0.449197 0.394328
vt 0.382380 0.734474
vt 0.386607 0.817438
vt 0.449377 0.738899
vt 0.449293 0.817305
vt 0.249005 0.921335
vt 0.333691 0.915405
vt 0.322427 0.217373
vt 0.244427 0.225945
vt 0.376191 0.209604
vt 0.449181 0.203134
vt 0.393230 0.912929
vt 0.449725 0.908713
vt 0.357015 0.480848
vt 0.289916 0.497185
vt 0.449069 0.459170
vt 0.291912 0.636840
vt 0.367710 0.646801
vt 0.449004 0.658947
vt 0.332108 0.566342
vt 0.274344 0.564207
vt 0.216105 0.692693
vt 0.167000 0.741026
vt 0.188880 0.452274
vt 0.162350 0.409330
vt 0.198440 0.516481
vt 0.195389 0.572415
vt 0.224362 0.631608
vt 0.033044 0.646942
vt 0.133240 0.664502
vt 0.118789 0.723192
vt 0.012924 0.688962
vt 0.124859 0.420998
vt 0.138657 0.467016
vt 0.026507 0.490683
vt 0.021326 0.456354
vt 0.144550 0.527365
vt 0.030897 0.529902
vt 0.144856 0.573058
vt 0.033509 0.567104
vt 0.138658 0.618468
vt 0.038227 0.611395
vt 0.173241 0.679623
vt 0.142417 0.731222
vt 0.181190 0.623501
vt 0.170536 0.571581
vt 0.872752 0.261617
vt 0.806536 0.248072
vt 0.916007 0.261533
vt 0.977302 0.247761
vt 0.449343 0.480957
vt 0.391130 0.505042
vt 0.396722 0.597623
vt 0.449356 0.613638
vt 0.363409 0.564520
vt 0.514524 0.174517
vt 0.514657 0.162826
vt 0.534516 0.163348
vt 0.531353 0.176449
vt 0.523750 0.187929
vt 0.513394 0.187942
vt 0.511718 0.354594
vt 0.523513 0.355465
vt 0.530576 0.368436
vt 0.507650 0.371038
vt 0.511290 0.383596
vt 0.532106 0.382044
vt 0.500706 0.163011
vt 0.500405 0.174313
vt 0.490287 0.174339
vt 0.489574 0.162784
vt 0.501195 0.187811
vt 0.490485 0.187589
vt 0.477717 0.174082
vt 0.478345 0.162583
vt 0.479253 0.187731
vt 0.470513 0.173809
vt 0.470780 0.162199
vt 0.471151 0.187703
vt 0.467483 0.354376
vt 0.479521 0.354592
vt 0.481908 0.370777
vt 0.469094 0.370065
vt 0.478709 0.383827
vt 0.468364 0.382207
vt 0.501976 0.354921
vt 0.494419 0.370469
vt 0.492666 0.354935
vt 0.502098 0.383413
vt 0.487873 0.383579
vt 0.511899 0.201614
vt 0.513394 0.187942
vt 0.528723 0.202301
vt 0.522268 0.215900
vt 0.510362 0.214818
vt 0.513463 0.325798
vt 0.523202 0.325691
vt 0.530269 0.340705
vt 0.507129 0.339930
vt 0.511718 0.354594
vt 0.501195 0.187811
vt 0.500629 0.200833
vt 0.491599 0.200727
vt 0.490485 0.187589
vt 0.499547 0.214226
vt 0.489638 0.213880
vt 0.476610 0.200255
vt 0.479253 0.187731
vt 0.477462 0.213427
vt 0.468800 0.199921
vt 0.471151 0.187703
vt 0.469357 0.212449
vt 0.470255 0.324669
vt 0.481506 0.325657
vt 0.480676 0.339782
vt 0.468343 0.339754
vt 0.479521 0.354592
vt 0.467483 0.354376
vt 0.502000 0.326026
vt 0.492232 0.339835
vt 0.492361 0.326058
vt 0.501976 0.354921
vt 0.492666 0.354935
vt 0.511424 0.228775
vt 0.510362 0.214818
vt 0.528186 0.229356
vt 0.522834 0.243872
vt 0.511651 0.245540
vt 0.514057 0.294820
vt 0.523564 0.296056
vt 0.529983 0.312046
vt 0.507196 0.309886
vt 0.513463 0.325798
vt 0.499547 0.214226
vt 0.500632 0.228849
vt 0.492213 0.228949
vt 0.489638 0.213880
vt 0.502074 0.245771
vt 0.493064 0.245847
vt 0.478785 0.228926
vt 0.477462 0.213427
vt 0.481056 0.245670
vt 0.471789 0.228852
vt 0.469357 0.212449
vt 0.472730 0.245438
vt 0.473600 0.294213
vt 0.484939 0.294003
vt 0.485140 0.309101
vt 0.472567 0.309033
vt 0.481506 0.325657
vt 0.470255 0.324669
vt 0.505341 0.294512
vt 0.495476 0.309686
vt 0.494806 0.294349
vt 0.502000 0.326026
vt 0.492361 0.326058
vt 0.514979 0.258180
vt 0.511651 0.245540
vt 0.530049 0.255654
vt 0.531735 0.269811
vt 0.514821 0.269813
vt 0.530748 0.283674
vt 0.509607 0.280867
vt 0.514057 0.294820
vt 0.502074 0.245771
vt 0.504939 0.258879
vt 0.494694 0.259346
vt 0.493064 0.245847
vt 0.504667 0.269186
vt 0.495226 0.269817
vt 0.482027 0.259872
vt 0.481056 0.245670
vt 0.483888 0.269964
vt 0.472918 0.259501
vt 0.472730 0.245438
vt 0.472908 0.270211
vt 0.485604 0.281488
vt 0.473888 0.281030
vt 0.484939 0.294003
vt 0.473600 0.294213
vt 0.496299 0.280854
vt 0.505341 0.294512
vt 0.494806 0.294349
vt 0.554264 0.127716
vt 0.549687 0.135368
vt 0.540516 0.129712
vt 0.544381 0.121419
vt 0.545662 0.143253
vt 0.535268 0.137148
vt 0.562967 0.405989
vt 0.550295 0.406900
vt 0.554719 0.395848
vt 0.571332 0.391533
vt 0.579089 0.401302
vt 0.571482 0.415233
vt 0.531025 0.123256
vt 0.533810 0.117487
vt 0.527614 0.128667
vt 0.547085 0.421164
vt 0.555428 0.423090
vt 0.562357 0.428166
vt 0.573369 0.135007
vt 0.567568 0.145412
vt 0.558478 0.155454
vt 0.593312 0.145598
vt 0.584718 0.158016
vt 0.583393 0.335628
vt 0.602810 0.368726
vt 0.594470 0.382933
vt 0.573342 0.372115
vt 0.574670 0.169787
vt 0.545232 0.168937
vt 0.547620 0.160569
vt 0.577561 0.268538
vt 0.580465 0.290789
vt 0.546780 0.288725
vt 0.546291 0.265750
vt 0.596818 0.270317
vt 0.598113 0.292194
vt 0.548125 0.336998
vt 0.578611 0.222245
vt 0.544515 0.217308
vt 0.558062 0.382574
vt 0.549573 0.368744
vt 0.546494 0.381951
vt 0.597595 0.185258
vt 0.609897 0.164610
vt 0.603192 0.325101
vt 0.614344 0.361275
vt 0.597478 0.222641
vt 0.163212 0.209662
vt 0.227527 0.209720
vt 0.217408 0.258902
vt 0.160828 0.245363
vt 0.106604 0.368385
vt 0.138731 0.298920
vt 0.192708 0.316406
vt 0.163672 0.389970
vt 0.160978 0.174046
vt 0.217862 0.160346
vt 0.108244 0.050256
vt 0.165029 0.028959
vt 0.193608 0.102651
vt 0.139860 0.120040
vt 0.046296 0.208996
vt 0.104661 0.209298
vt 0.108242 0.235423
vt 0.067407 0.243394
vt 0.067822 0.174791
vt 0.108466 0.183206
vt 0.016142 0.270959
vt 0.051231 0.286591
vt 0.016842 0.146664
vt 0.052100 0.131418
vt 0.051339 0.337135
vt 0.009069 0.328242
vt 0.052736 0.080888
vt 0.010380 0.089298
vt 0.092003 0.282920
vt 0.092849 0.135508
vt 0.695636 0.930429
vt 0.695484 0.974770
vt 0.593809 0.961183
vt 0.618337 0.917069
vt 0.772992 0.917558
vt 0.797157 0.961926
vt 0.648441 0.683199
vt 0.542015 0.677952
vt 0.571805 0.619224
vt 0.654581 0.653524
vt 0.823091 0.619770
vt 0.852080 0.678922
vt 0.745569 0.682019
vt 0.739883 0.652267
vt 0.561712 0.746447
vt 0.668466 0.710824
vt 0.695958 0.822633
vt 0.627048 0.813230
vt 0.696795 0.714827
vt 0.724732 0.709835
vt 0.764949 0.813382
vt 0.663421 0.657148
vt 0.659678 0.679273
vt 0.734223 0.678087
vt 0.730978 0.655769
vt 0.674208 0.698822
vt 0.719090 0.697770
vt 0.696601 0.702522
vt 0.752980 0.577372
vt 0.750495 0.558637
vt 0.773729 0.556163
vt 0.781620 0.575528
vt 0.639968 0.577371
vt 0.611329 0.575526
vt 0.619220 0.556161
vt 0.642454 0.558636
vt 0.723042 0.575758
vt 0.722977 0.557194
vt 0.669906 0.575757
vt 0.669971 0.557193
vt 0.696474 0.579012
vt 0.696474 0.560089
vt 0.801536 0.712776
vt 0.778904 0.708162
vt 0.394533 0.011420
vt 0.445815 0.014902
vt 0.441225 0.070121
vt 0.393064 0.067775
vt 0.344991 0.010363
vt 0.344876 0.066944
vt 0.294911 0.010536
vt 0.296265 0.067064
vt 0.242384 0.011973
vt 0.246742 0.067233
vt 0.186709 0.020723
vt 0.195727 0.080057
vt 0.500833 0.024099
vt 0.491629 0.083611
vt 0.614225 0.090157
vt 0.567331 0.118066
vt 0.567418 0.006274
vt 0.614269 0.034261
vt 0.520480 0.090079
vt 0.520523 0.034183
vt 0.435599 0.105236
vt 0.392480 0.103960
vt 0.465579 0.113805
vt 0.252369 0.101526
vt 0.222312 0.109491
vt 0.296047 0.102346
vt 0.344218 0.103250
vt 0.756577 0.620081
vt 0.787002 0.619343
vt 0.636371 0.620080
vt 0.605946 0.619341
vt 0.722294 0.621082
vt 0.670654 0.621082
vt 0.696474 0.617054
vt 0.685955 0.161590
vt 0.687354 0.051859
vt 0.636155 0.029584
vt 0.635015 0.139310
vt 0.734629 0.163080
vt 0.734875 0.051752
vt 0.806749 0.140026
vt 0.806450 0.030700
vt 0.873143 0.120131
vt 0.873700 0.053805
vt 0.916274 0.120072
vt 0.916044 0.054130
vt 0.977488 0.139234
vt 0.976928 0.032458
vt 0.632722 0.277491
vt 0.622912 0.399773
vt 0.675441 0.423013
vt 0.683873 0.292870
vt 0.732420 0.434157
vt 0.734793 0.293339
vt 0.806824 0.440252
vt 0.806849 0.280427
vt 0.865538 0.447194
vt 0.872593 0.308747
vt 0.925686 0.438774
vt 0.915918 0.308549
vt 0.985246 0.407945
vt 0.977949 0.279838
vt 0.633654 0.211965
vt 0.684846 0.222478
vt 0.734791 0.222171
vt 0.807144 0.213789
vt 0.873015 0.214173
vt 0.916048 0.213922
vt 0.976502 0.214235
vt 0.806638 0.508448
vt 0.734654 0.507298
vt 0.864001 0.508270
vt 0.923620 0.508714
vt 0.706243 0.465891
vt 0.673677 0.464064
vt 0.679364 0.508009
vt 0.686554 0.029627
vt 0.736066 0.029754
vt 0.873883 0.031900
vt 0.916070 0.031934
vt 0.188397 0.832610
vt 0.144549 0.838770
vt 0.155411 0.878472
vt 0.195899 0.860038
vt 0.164480 0.955042
vt 0.139712 0.935286
vt 0.115114 0.975268
vt 0.136411 0.992264
vt 0.038275 0.739136
vt 0.028670 0.765101
vt 0.061195 0.777937
vt 0.070790 0.751968
vt 0.102393 0.798808
vt 0.113524 0.768599
vt 0.200168 0.908844
vt 0.174369 0.895032
vt 0.152320 0.814416
vt 0.167318 0.788710
vt 0.207469 0.818179
vt 0.219465 0.862033
vt 0.077003 0.823496
vt 0.042190 0.823496
vt 0.024783 0.867111
vt 0.094409 0.867111
vt 0.027177 0.924833
vt 0.042190 0.966517
vt 0.077003 0.966517
vt 0.092016 0.924833
vt 0.247041 0.967938
vt 0.253730 0.990064
vt 0.337650 0.985852
vt 0.334193 0.964190
vt 0.325361 0.166480
vt 0.326448 0.144938
vt 0.248642 0.157202
vt 0.243998 0.179629
vt 0.376629 0.155263
vt 0.375102 0.131223
vt 0.398828 0.985243
vt 0.394542 0.963783
vt 0.328715 0.819779
vt 0.294605 0.727524
vt 0.232842 0.780535
vt 0.254877 0.842757
vt 0.229833 0.373460
vt 0.286511 0.409712
vt 0.315408 0.314959
vt 0.249289 0.304981
vt 0.363813 0.403429
vt 0.370665 0.314560
vt 0.382380 0.734474
vt 0.386607 0.817438
vt 0.333691 0.915405
vt 0.249005 0.921335
vt 0.244427 0.225945
vt 0.322427 0.217373
vt 0.376191 0.209604
vt 0.393230 0.912929
vt 0.357015 0.480848
vt 0.289916 0.497185
vt 0.291912 0.636840
vt 0.367710 0.646801
vt 0.332108 0.566342
vt 0.274344 0.564207
vt 0.216105 0.692693
vt 0.167000 0.741026
vt 0.188880 0.452274
vt 0.162350 0.409330
vt 0.198440 0.516481
vt 0.195389 0.572415
vt 0.224362 0.631608
vt 0.033044 0.646942
vt 0.012924 0.688962
vt 0.118789 0.723192
vt 0.133240 0.664502
vt 0.124859 0.420998
vt 0.021326 0.456354
vt 0.026507 0.490683
vt 0.138657 0.467016
vt 0.030897 0.529902
vt 0.144550 0.527365
vt 0.033509 0.567104
vt 0.144856 0.573058
vt 0.038227 0.611395
vt 0.138658 0.618468
vt 0.173241 0.679623
vt 0.142417 0.731222
vt 0.170536 0.571581
vt 0.181190 0.623501
vt 0.806536 0.248072
vt 0.872752 0.261617
vt 0.916007 0.261533
vt 0.977302 0.247761
vt 0.391130 0.505042
vt 0.396722 0.597623
vt 0.363409 0.564520
vt 0.514524 0.174517
vt 0.531353 0.176449
vt 0.534516 0.163348
vt 0.514657 0.162826
vt 0.513394 0.187942
vt 0.523750 0.187929
vt 0.511718 0.354594
vt 0.507650 0.371038
vt 0.530576 0.368436
vt 0.523513 0.355465
vt 0.511290 0.383596
vt 0.532106 0.382044
vt 0.500706 0.163011
vt 0.489574 0.162784
vt 0.490287 0.174339
vt 0.500405 0.174313
vt 0.490485 0.187589
vt 0.501195 0.187811
vt 0.478345 0.162583
vt 0.477717 0.174082
vt 0.479253 0.187731
vt 0.470780 0.162199
vt 0.470513 0.173809
vt 0.471151 0.187703
vt 0.467483 0.354376
vt 0.469094 0.370065
vt 0.481908 0.370777
vt 0.479521 0.354592
vt 0.468364 0.382207
vt 0.478709 0.383827
vt 0.501976 0.354921
vt 0.492666 0.354935
vt 0.494419 0.370469
vt 0.487873 0.383579
vt 0.502098 0.383413
vt 0.511899 0.201614
vt 0.528723 0.202301
vt 0.513394 0.187942
vt 0.510362 0.214818
vt 0.522268 0.215900
vt 0.513463 0.325798
vt 0.507129 0.339930
vt 0.530269 0.340705
vt 0.523202 0.325691
vt 0.511718 0.354594
vt 0.501195 0.187811
vt 0.490485 0.187589
vt 0.491599 0.200727
vt 0.500629 0.200833
vt 0.489638 0.213880
vt 0.499547 0.214226
vt 0.479253 0.187731
vt 0.476610 0.200255
vt 0.477462 0.213427
vt 0.471151 0.187703
vt 0.468800 0.199921
vt 0.469357 0.212449
vt 0.470255 0.324669
vt 0.468343 0.339754
vt 0.480676 0.339782
vt 0.481506 0.325657
vt 0.467483 0.354376
vt 0.479521 0.354592
vt 0.502000 0.326026
vt 0.492361 0.326058
vt 0.492232 0.339835
vt 0.492666 0.354935
vt 0.501976 0.354921
vt 0.511424 0.228775
vt 0.528186 0.229356
vt 0.510362 0.214818
vt 0.511651 0.245540
vt 0.522834 0.243872
vt 0.514057 0.294820
vt 0.507196 0.309886
vt 0.529983 0.312046
vt 0.523564 0.296056
vt 0.513463 0.325798
vt 0.499547 0.214226
vt 0.489638 0.213880
vt 0.492213 0.228949
vt 0.500632 0.228849
vt 0.493064 0.245847
vt 0.502074 0.245771
vt 0.477462 0.213427
vt 0.478785 0.228926
vt 0.481056 0.245670
vt 0.469357 0.212449
vt 0.471789 0.228852
vt 0.472730 0.245438
vt 0.473600 0.294213
vt 0.472567 0.309033
vt 0.485140 0.309101
vt 0.484939 0.294003
vt 0.470255 0.324669
vt 0.481506 0.325657
vt 0.505341 0.294512
vt 0.494806 0.294349
vt 0.495476 0.309686
vt 0.492361 0.326058
vt 0.502000 0.326026
vt 0.514979 0.258180
vt 0.530049 0.255654
vt 0.511651 0.245540
vt 0.514821 0.269813
vt 0.531735 0.269811
vt 0.509607 0.280867
vt 0.530748 0.283674
vt 0.514057 0.294820
vt 0.502074 0.245771
vt 0.493064 0.245847
vt 0.494694 0.259346
vt 0.504939 0.258879
vt 0.495226 0.269817
vt 0.504667 0.269186
vt 0.481056 0.245670
vt 0.482027 0.259872
vt 0.483888 0.269964
vt 0.472730 0.245438
vt 0.472918 0.259501
vt 0.472908 0.270211
vt 0.473888 0.281030
vt 0.485604 0.281488
vt 0.473600 0.294213
vt 0.484939 0.294003
vt 0.496299 0.280854
vt 0.494806 0.294349
vt 0.505341 0.294512
vt 0.554264 0.127716
vt 0.544381 0.121419
vt 0.540516 0.129712
vt 0.549687 0.135368
vt 0.535268 0.137148
vt 0.545662 0.143253
vt 0.562967 0.405989
vt 0.571332 0.391533
vt 0.554719 0.395848
vt 0.550295 0.406900
vt 0.579089 0.401302
vt 0.571482 0.415233
vt 0.533810 0.117487
vt 0.531025 0.123256
vt 0.527614 0.128667
vt 0.547085 0.421164
vt 0.555428 0.423090
vt 0.562357 0.428166
vt 0.573369 0.135007
vt 0.567568 0.145412
vt 0.558478 0.155454
vt 0.593312 0.145598
vt 0.584718 0.158016
vt 0.583393 0.335628
vt 0.573342 0.372115
vt 0.594470 0.382933
vt 0.602810 0.368726
vt 0.574670 0.169787
vt 0.547620 0.160569
vt 0.545232 0.168937
vt 0.577561 0.268538
vt 0.546291 0.265750
vt 0.546780 0.288725
vt 0.580465 0.290789
vt 0.598113 0.292194
vt 0.596818 0.270317
vt 0.548125 0.336998
vt 0.544515 0.217308
vt 0.578611 0.222245
vt 0.558062 0.382574
vt 0.549573 0.368744
vt 0.546494 0.381951
vt 0.597595 0.185258
vt 0.609897 0.164610
vt 0.614344 0.361275
vt 0.603192 0.325101
vt 0.597478 0.222641
vt 0.144624 0.418875
vt 0.632922 0.245639
vt 0.466798 0.173728
vt 0.463598 0.370217
vt 0.464874 0.199775
vt 0.462582 0.338853
vt 0.468295 0.228834
vt 0.467618 0.309038
vt 0.468110 0.259548
vt 0.467787 0.280967
vt 0.527964 0.121348
vt 0.553106 0.428109
vt 0.473531 0.682942
vt 0.851965 0.579170
vt 0.920459 0.685076
vt 0.551812 0.816553
vt 0.831945 0.748090
vt 0.840672 0.817983
vt 0.543592 0.578161
vt 0.724073 0.657314
vt 0.696473 0.673283
vt 0.696474 0.642851
vt 0.668874 0.657314
vt 0.763145 0.726358
vt 0.810322 0.733007
vt 0.795936 0.752131
vt 0.771577 0.748672
vt 0.144624 0.418875
vt 0.632922 0.245639
vt 0.466798 0.173728
vt 0.463598 0.370217
vt 0.464874 0.199775
vt 0.462582 0.338853
vt 0.468295 0.228834
vt 0.467618 0.309038
vt 0.468110 0.259548
vt 0.467787 0.280967
vt 0.527964 0.121348
vt 0.553106 0.428109
vn 0.5113 -0.0575 -0.8575
vn 0.9748 -0.2160 -0.0558
vn 0.9811 -0.1802 -0.0710
vn 0.6720 -0.1226 -0.7304
vn -0.5967 0.1357 -0.7909
vn -0.5789 -0.0491 -0.8139
vn -0.9958 0.0399 -0.0825
vn -0.9951 0.0961 0.0241
vn -0.7469 0.0349 0.6640
vn -0.5784 0.0364 0.8149
vn 0.5137 -0.1223 0.8492
vn 0.5733 -0.1942 0.7960
vn 0.9822 -0.1877 -0.0015
vn 0.5617 -0.0665 -0.8246
vn 0.4606 -0.4461 -0.7674
vn 0.9439 -0.3296 0.0195
vn -0.5605 0.0873 -0.8235
vn -0.6759 0.0938 -0.7310
vn -0.9984 0.0560 0.0013
vn -0.9868 0.1062 -0.1221
vn -0.5618 -0.0710 0.8242
vn -0.7225 0.0468 0.6897
vn 0.5155 -0.1893 0.8357
vn 0.4749 -0.1989 0.8573
vn 0.5640 -0.0478 -0.8244
vn 0.9761 -0.2170 -0.0134
vn -0.5743 0.1488 -0.8050
vn -0.9959 0.0673 0.0609
vn -0.5477 -0.1012 0.8305
vn 0.5508 -0.2568 0.7941
vn 0.0000 -0.7781 -0.6281
vn -0.0000 -0.9904 0.1379
vn -0.0000 -0.7629 0.6465
vn -0.9463 -0.3175 0.0611
vn -0.6577 -0.3802 -0.6504
vn -0.6219 -0.3720 0.6891
vn -0.1436 -0.5473 0.8245
vn 0.0000 -0.5956 0.8033
vn -0.2238 -0.1133 -0.9680
vn -0.0911 -0.2103 -0.9734
vn 0.0000 -0.1768 -0.9843
vn -0.0836 -0.3109 -0.9467
vn 0.0000 -0.2958 -0.9553
vn 0.6045 -0.2372 -0.7605
vn -0.6045 -0.2372 -0.7605
vn -0.7164 0.4089 0.5653
vn 0.7164 0.4089 0.5653
vn -0.4814 0.5162 0.7084
vn 0.4835 0.5149 0.7079
vn 0.7385 -0.6617 -0.1298
vn 0.4447 -0.6007 -0.6643
vn -0.4447 -0.6007 -0.6643
vn -0.7389 -0.6613 -0.1295
vn 0.7144 -0.6750 0.1844
vn 0.9258 0.3353 0.1743
vn -0.7142 -0.6760 0.1815
vn -0.9260 0.3361 0.1719
vn -0.4575 -0.5358 0.7097
vn 0.4603 -0.5348 0.7086
vn -0.9690 -0.2365 0.0713
vn -0.6989 -0.3018 -0.6484
vn -0.7052 -0.2467 0.6647
vn -0.2459 -0.4067 0.8799
vn -0.0000 -0.4680 0.8837
vn -0.1075 -0.3227 -0.9404
vn 0.0000 -0.2900 -0.9570
vn -0.6910 -0.0806 -0.7184
vn -0.9991 -0.0417 0.0123
vn -0.6948 -0.7182 0.0382
vn -0.4413 -0.2911 -0.8488
vn -0.7611 0.0394 0.6474
vn -0.5220 -0.1729 0.8352
vn -0.3449 0.1143 0.9317
vn -0.3401 0.1244 0.9321
vn -0.0000 0.1134 0.9936
vn 0.0000 0.1707 0.9853
vn -0.1510 0.0091 -0.9885
vn -0.1450 -0.0714 -0.9868
vn 0.0000 0.0321 -0.9995
vn 0.0000 -0.0796 -0.9968
vn -0.9917 0.1220 0.0404
vn -0.6973 0.0615 -0.7141
vn -0.7267 0.1400 0.6726
vn -0.2752 0.1201 0.9538
vn 0.0000 0.0970 0.9953
vn -0.0992 -0.0115 -0.9950
vn 0.0000 -0.0218 -0.9998
vn -0.3683 0.3907 0.8437
vn -0.3335 0.5237 0.7839
vn -0.0000 0.2293 0.9733
vn -0.2619 0.5518 -0.7918
vn -0.1714 0.5075 -0.8444
vn 0.0000 0.3931 -0.9195
vn -0.4173 0.9084 -0.0247
vn -0.3442 0.9382 0.0364
vn -0.0929 -0.5095 -0.8554
vn -0.0205 -0.9998 0.0086
vn -0.1464 -0.4862 0.8615
vn -0.2426 0.5577 0.7938
vn -0.2542 0.9671 -0.0047
vn -0.1906 0.5337 -0.8239
vn -0.0999 -0.6148 -0.7823
vn -0.2378 -0.5604 -0.7933
vn 0.0234 -0.9994 -0.0252
vn 0.0925 -0.9957 -0.0111
vn 0.0195 -0.5465 0.8372
vn 0.4767 -0.3543 0.8045
vn -0.0997 0.5881 0.8026
vn -0.0419 0.7015 0.7114
vn -0.2412 0.9684 -0.0639
vn -0.3103 0.9503 -0.0250
vn -0.3551 0.4567 -0.8157
vn -0.2389 0.5727 -0.7842
vn -0.1262 -0.5855 -0.8008
vn 0.0657 -0.9976 0.0222
vn -0.2794 0.5267 -0.8029
vn -0.2448 0.9696 0.0023
vn -0.5656 -0.0992 0.8187
vn -0.9969 0.0736 0.0275
vn 0.5306 -0.2194 0.8187
vn 0.9788 -0.2046 -0.0128
vn 0.0000 0.2432 0.9700
vn -0.5544 0.2085 0.8057
vn -0.4903 0.3734 -0.7875
vn -0.0000 0.2914 -0.9566
vn -0.8190 0.5540 -0.1497
vn -0.4527 0.8889 0.0701
vn -0.0178 -0.0330 0.9993
vn -0.1852 0.0666 0.9804
vn -0.4568 0.8428 0.2846
vn -0.9982 0.0269 -0.0541
vn -0.0802 0.0563 -0.9952
vn 0.0125 -0.9643 0.2644
vn 0.4860 -0.8717 -0.0630
vn -0.1233 0.0440 0.9914
vn -0.6705 0.7397 0.0567
vn -0.8237 0.5647 0.0507
vn -0.0363 -0.0457 0.9983
vn -0.1689 0.1537 -0.9736
vn -0.0827 0.0654 -0.9944
vn -0.8075 0.5876 0.0516
vn -0.0838 -0.0856 0.9928
vn -0.1300 0.0250 -0.9912
vn -0.8961 0.4415 0.0455
vn -0.3392 -0.3195 0.8848
vn -0.3807 -0.2201 -0.8981
vn 0.7213 -0.6904 -0.0553
vn 0.1282 -0.9900 -0.0582
vn 0.7650 -0.6418 -0.0535
vn -0.5228 0.8151 -0.2498
vn -0.2689 0.1745 0.9472
vn -0.6187 0.7658 -0.1752
vn -0.9357 -0.2159 -0.2790
vn 0.1466 -0.1543 -0.9771
vn -0.0173 -0.9960 0.0879
vn 0.5506 -0.7901 0.2695
vn -0.3779 0.2331 0.8960
vn -0.7258 0.6296 -0.2771
vn -0.8572 0.4349 -0.2759
vn -0.2869 0.1604 0.9444
vn 0.0716 -0.0810 -0.9941
vn 0.1686 -0.1582 -0.9729
vn -0.8439 0.4596 -0.2768
vn -0.3280 0.1136 0.9378
vn 0.1254 -0.2036 -0.9710
vn -0.9136 0.3058 -0.2679
vn -0.5260 -0.1729 0.8327
vn -0.1189 -0.4577 -0.8811
vn 0.7703 -0.5738 0.2783
vn 0.2226 -0.9518 0.2110
vn 0.8083 -0.5190 0.2782
vn -0.6015 0.7116 -0.3631
vn -0.3290 0.2326 0.9152
vn -0.6128 0.6516 -0.4471
vn -0.8518 -0.3920 -0.3475
vn 0.1651 -0.2747 -0.9472
vn 0.0767 -0.9920 0.0998
vn 0.6019 -0.7097 0.3662
vn -0.4112 0.3089 0.8576
vn -0.7678 0.5304 -0.3592
vn -0.8823 0.3296 -0.3361
vn -0.3163 0.2497 0.9152
vn 0.0995 -0.1944 -0.9759
vn 0.2013 -0.2607 -0.9442
vn -0.8708 0.3553 -0.3399
vn -0.3531 0.1995 0.9141
vn 0.1623 -0.3087 -0.9372
vn -0.9296 0.1957 -0.3125
vn -0.5253 -0.1121 0.8435
vn -0.0622 -0.5688 -0.8201
vn 0.8068 -0.4727 0.3544
vn 0.2960 -0.8969 0.3286
vn 0.8402 -0.4159 0.3480
vn -0.5209 0.6274 -0.5788
vn -0.5158 0.3174 0.7957
vn -0.4902 0.5492 -0.6768
vn 0.2758 -0.3219 -0.9057
vn 0.3723 -0.3610 -0.8550
vn 0.2704 -0.9555 0.1179
vn 0.5506 -0.6216 0.5572
vn -0.5467 0.4183 0.7254
vn -0.7084 0.4412 -0.5509
vn -0.8221 0.2414 -0.5156
vn -0.4607 0.3708 0.8064
vn 0.2564 -0.3337 -0.9071
vn 0.3541 -0.3910 -0.8495
vn -0.8104 0.2669 -0.5216
vn -0.4960 0.3194 0.8074
vn 0.3153 -0.4391 -0.8413
vn -0.8711 0.1090 -0.4788
vn -0.6506 -0.0057 0.7594
vn 0.0785 -0.6873 -0.7221
vn 0.7465 -0.3834 0.5438
vn 0.2522 -0.8260 0.5041
vn 0.7798 -0.3266 0.5341
vn 0.5441 -0.8357 0.0751
vn 0.0543 -0.0296 0.9981
vn 0.1474 0.0332 0.9885
vn 0.5948 -0.8025 -0.0474
vn -0.6823 0.6981 0.2169
vn -0.6468 0.7558 0.1025
vn -0.3089 -0.1412 -0.9406
vn -0.2857 -0.2095 -0.9351
vn -0.0434 -0.1076 0.9932
vn 0.2266 -0.9552 0.1905
vn -0.8560 0.4212 0.2996
vn -0.6510 -0.4766 -0.5907
vn 0.4064 -0.8807 0.2432
vn 0.1814 0.0753 0.9805
vn -0.4803 0.2620 0.8370
vn 0.5304 -0.7667 0.3617
vn 0.3645 0.0756 0.9281
vn 0.0354 -0.9789 -0.2013
vn -0.4014 -0.8186 -0.4108
vn -0.0898 0.7598 0.6439
vn -0.2485 0.8619 0.4419
vn -0.3491 -0.0271 0.9367
vn 0.0164 0.4960 -0.8682
vn 0.2024 -0.6688 -0.7154
vn 0.2619 -0.8001 -0.5396
vn -0.0955 0.4936 -0.8644
vn -0.0436 -0.9989 -0.0183
vn -0.2489 0.9654 -0.0783
vn -0.3507 0.9147 -0.2007
vn -0.3551 -0.8652 0.3540
vn -0.0000 0.1323 -0.9912
vn -0.6232 0.1345 -0.7704
vn -0.8507 -0.0783 0.5198
vn -0.9866 0.1287 -0.1004
vn 0.6232 0.1345 -0.7704
vn 0.4903 0.3734 -0.7875
vn 0.8507 -0.0784 0.5199
vn 0.5544 0.2085 0.8057
vn 0.8190 0.5540 -0.1497
vn 0.9866 0.1287 -0.1004
vn -0.0000 0.9778 -0.2097
vn -0.0000 0.5216 -0.8532
vn -0.6347 0.3851 -0.6699
vn -0.6302 0.7458 -0.2160
vn 0.6302 0.7458 -0.2160
vn 0.6347 0.3851 -0.6699
vn 0.0000 0.8750 0.4841
vn -0.6171 0.6912 0.3761
vn 0.6171 0.6912 0.3761
vn -0.6248 0.2868 0.7262
vn -0.0000 0.4432 0.8964
vn 0.6247 0.2869 0.7262
vn -0.9601 0.2772 -0.0363
vn 0.9601 0.2772 -0.0363
vn -0.0000 0.1800 0.9837
vn -0.3147 0.0816 0.9457
vn 0.3147 0.0816 0.9457
vn -0.7131 -0.6007 0.3614
vn -0.3599 -0.4998 0.7878
vn 0.0000 -0.5265 0.8502
vn -0.0011 -0.9829 0.1841
vn 0.3644 -0.5462 0.7542
vn 0.6547 -0.6404 0.4017
vn -0.6657 -0.3060 0.6806
vn -0.6915 -0.0306 0.7217
vn 0.0000 0.3423 0.9396
vn -0.6258 0.1027 0.7732
vn -0.0021 0.2319 0.9727
vn 0.6587 -0.0292 0.7518
vn 0.6235 0.1232 0.7720
vn -0.0026 -0.9234 -0.3837
vn -0.8589 -0.5061 -0.0788
vn 0.8615 -0.5020 -0.0760
vn -0.8568 0.2302 0.4613
vn 0.8611 0.2233 0.4568
vn -0.0055 0.6997 0.7144
vn -0.8432 -0.3008 -0.4456
vn -0.0000 -0.7213 -0.6927
vn 0.8432 -0.3008 -0.4456
vn -0.8320 0.5457 0.0995
vn 0.8320 0.5457 0.0995
vn 0.0000 0.9189 0.3945
vn 0.7021 -0.7030 -0.1130
vn 0.5918 -0.6564 0.4679
vn 0.4812 0.8330 -0.2730
vn 0.8084 -0.0281 -0.5879
vn 0.3020 0.1238 -0.9452
vn 0.2068 0.8288 -0.5200
vn 0.3395 0.6364 0.6927
vn -0.4736 0.8008 0.3666
vn -0.3765 -0.0148 0.9263
vn -0.7395 -0.0803 0.6684
vn 0.2493 -0.7319 0.6341
vn -0.4796 -0.8636 0.1557
vn 0.3695 -0.8626 -0.3456
vn 0.0426 -0.7560 -0.6532
vn 0.9185 0.1479 -0.3667
vn 0.7087 0.4067 -0.5765
vn 0.5946 -0.2522 0.7635
vn 0.3772 0.1465 0.9145
vn -0.7477 -0.6235 0.2282
vn 0.0000 -0.9974 0.0717
vn 0.7477 -0.6235 0.2282
vn -0.7552 0.0763 0.6511
vn 0.7552 0.0763 0.6511
vn 0.0000 0.3137 0.9495
vn -0.5113 -0.0575 -0.8575
vn -0.6720 -0.1226 -0.7304
vn -0.9811 -0.1802 -0.0710
vn -0.9748 -0.2160 -0.0558
vn 0.5967 0.1357 -0.7909
vn 0.5104 -0.1296 -0.8501
vn 0.9951 0.0961 0.0241
vn 0.9958 0.0399 -0.0825
vn 0.5784 0.0364 0.8149
vn 0.7469 0.0349 0.6641
vn -0.5733 -0.1942 0.7960
vn -0.4186 -0.1806 0.8900
vn -0.9822 -0.1877 -0.0015
vn -0.9084 -0.4173 0.0261
vn -0.4606 -0.4461 -0.7674
vn -0.5617 -0.0665 -0.8246
vn 0.7237 0.0537 -0.6880
vn 0.5605 0.0873 -0.8235
vn 0.9868 0.1062 -0.1221
vn 0.9984 0.0560 0.0013
vn 0.7225 0.0468 0.6897
vn 0.5617 -0.0710 0.8243
vn -0.4111 -0.4709 0.7806
vn -0.5155 -0.1893 0.8357
vn -0.9761 -0.2170 -0.0134
vn -0.5640 -0.0478 -0.8244
vn 0.5743 0.1488 -0.8050
vn 0.9959 0.0673 0.0609
vn 0.5477 -0.1012 0.8305
vn -0.5508 -0.2568 0.7941
vn 0.9463 -0.3175 0.0611
vn 0.6577 -0.3802 -0.6504
vn 0.6219 -0.3720 0.6891
vn 0.1436 -0.5473 0.8245
vn 0.2238 -0.1133 -0.9680
vn 0.0911 -0.2103 -0.9734
vn 0.0836 -0.3109 -0.9467
vn 0.4813 0.5161 0.7085
vn -0.4835 0.5149 0.7079
vn -0.7385 -0.6617 -0.1298
vn 0.7389 -0.6613 -0.1295
vn -0.7144 -0.6751 0.1844
vn -0.9258 0.3353 0.1743
vn 0.9260 0.3361 0.1719
vn 0.7142 -0.6760 0.1814
vn 0.4575 -0.5358 0.7097
vn -0.4603 -0.5348 0.7086
vn 0.9690 -0.2365 0.0713
vn 0.6989 -0.3018 -0.6484
vn 0.7052 -0.2467 0.6647
vn 0.2459 -0.4067 0.8799
vn 0.1075 -0.3227 -0.9404
vn 0.6910 -0.0806 -0.7184
vn 0.4413 -0.2911 -0.8488
vn 0.6948 -0.7182 0.0382
vn 0.9991 -0.0417 0.0123
vn 0.5220 -0.1729 0.8352
vn 0.7611 0.0394 0.6474
vn 0.3401 0.1244 0.9321
vn 0.3449 0.1143 0.9317
vn 0.1510 0.0091 -0.9885
vn 0.1450 -0.0714 -0.9868
vn 0.6973 0.0615 -0.7141
vn 0.9917 0.1220 0.0404
vn 0.7267 0.1400 0.6726
vn 0.2752 0.1201 0.9538
vn 0.0992 -0.0115 -0.9950
vn 0.3683 0.3907 0.8437
vn 0.3335 0.5237 0.7839
vn 0.2619 0.5518 -0.7918
vn 0.1714 0.5075 -0.8444
vn 0.4173 0.9084 -0.0247
vn 0.3442 0.9382 0.0364
vn 0.0929 -0.5095 -0.8554
vn 0.0205 -0.9998 0.0086
vn 0.1464 -0.4862 0.8615
vn 0.2426 0.5577 0.7938
vn 0.2542 0.9671 -0.0047
vn 0.1906 0.5337 -0.8239
vn 0.0999 -0.6148 -0.7823
vn -0.0925 -0.9957 -0.0111
vn -0.0234 -0.9994 -0.0252
vn 0.2378 -0.5604 -0.7933
vn -0.4767 -0.3543 0.8045
vn -0.0195 -0.5465 0.8372
vn 0.0419 0.7015 0.7114
vn 0.0997 0.5881 0.8026
vn 0.3103 0.9503 -0.0250
vn 0.2412 0.9684 -0.0639
vn 0.2389 0.5727 -0.7842
vn 0.3551 0.4567 -0.8157
vn 0.1261 -0.5855 -0.8008
vn -0.0657 -0.9976 0.0222
vn 0.2448 0.9696 0.0023
vn 0.2794 0.5267 -0.8029
vn 0.9969 0.0736 0.0275
vn 0.5656 -0.0992 0.8187
vn -0.5306 -0.2194 0.8187
vn -0.9788 -0.2046 -0.0128
vn 0.4527 0.8889 0.0701
vn 0.4568 0.8428 0.2846
vn 0.1852 0.0666 0.9804
vn 0.0178 -0.0330 0.9993
vn 0.0802 0.0563 -0.9952
vn 0.9982 0.0269 -0.0541
vn -0.4860 -0.8717 -0.0630
vn -0.0125 -0.9643 0.2644
vn 0.1233 0.0440 0.9914
vn 0.0363 -0.0457 0.9983
vn 0.8237 0.5647 0.0507
vn 0.6705 0.7397 0.0567
vn 0.0827 0.0654 -0.9944
vn 0.1689 0.1537 -0.9736
vn 0.0838 -0.0856 0.9928
vn 0.8075 0.5876 0.0516
vn 0.1300 0.0250 -0.9912
vn 0.3392 -0.3195 0.8848
vn 0.8961 0.4415 0.0455
vn 0.3807 -0.2201 -0.8981
vn -0.1282 -0.9900 -0.0582
vn -0.7212 -0.6905 -0.0553
vn -0.7650 -0.6418 -0.0535
vn 0.5227 0.8151 -0.2497
vn 0.6187 0.7658 -0.1752
vn 0.2689 0.1745 0.9472
vn -0.1466 -0.1543 -0.9771
vn 0.9357 -0.2159 -0.2790
vn -0.5506 -0.7901 0.2695
vn 0.0172 -0.9960 0.0879
vn 0.3779 0.2331 0.8960
vn 0.2869 0.1604 0.9444
vn 0.8572 0.4349 -0.2759
vn 0.7258 0.6296 -0.2771
vn -0.1686 -0.1582 -0.9729
vn -0.0716 -0.0810 -0.9941
vn 0.3280 0.1136 0.9378
vn 0.8439 0.4596 -0.2768
vn -0.1254 -0.2036 -0.9710
vn 0.5260 -0.1729 0.8327
vn 0.9136 0.3058 -0.2679
vn 0.1189 -0.4577 -0.8811
vn -0.2226 -0.9518 0.2110
vn -0.7703 -0.5738 0.2783
vn -0.8082 -0.5190 0.2782
vn 0.6015 0.7116 -0.3631
vn 0.6128 0.6516 -0.4471
vn 0.3290 0.2326 0.9152
vn -0.1651 -0.2747 -0.9472
vn 0.8518 -0.3920 -0.3475
vn -0.6019 -0.7097 0.3662
vn -0.0767 -0.9920 0.0998
vn 0.4111 0.3089 0.8576
vn 0.3163 0.2497 0.9152
vn 0.8823 0.3296 -0.3361
vn 0.7678 0.5304 -0.3594
vn -0.2013 -0.2607 -0.9442
vn -0.0995 -0.1944 -0.9759
vn 0.3531 0.1995 0.9141
vn 0.8708 0.3553 -0.3399
vn -0.1623 -0.3087 -0.9372
vn 0.5253 -0.1121 0.8435
vn 0.9296 0.1957 -0.3125
vn 0.0622 -0.5688 -0.8201
vn -0.2960 -0.8969 0.3286
vn -0.8068 -0.4727 0.3544
vn -0.8402 -0.4159 0.3480
vn 0.5209 0.6274 -0.5788
vn 0.4902 0.5492 -0.6768
vn 0.5158 0.3174 0.7957
vn -0.3723 -0.3610 -0.8550
vn -0.2758 -0.3219 -0.9057
vn -0.5506 -0.6216 0.5572
vn -0.2704 -0.9555 0.1179
vn 0.5467 0.4183 0.7254
vn 0.4607 0.3708 0.8064
vn 0.8221 0.2414 -0.5156
vn 0.7084 0.4412 -0.5509
vn -0.3541 -0.3910 -0.8495
vn -0.2564 -0.3337 -0.9071
vn 0.4960 0.3194 0.8074
vn 0.8104 0.2669 -0.5216
vn -0.3153 -0.4391 -0.8413
vn 0.6506 -0.0057 0.7594
vn 0.8711 0.1090 -0.4788
vn -0.0785 -0.6873 -0.7221
vn -0.2522 -0.8260 0.5041
vn -0.7465 -0.3834 0.5438
vn -0.7798 -0.3266 0.5340
vn -0.5441 -0.8357 0.0751
vn -0.5949 -0.8024 -0.0474
vn -0.1474 0.0332 0.9885
vn -0.0544 -0.0296 0.9981
vn 0.6468 0.7558 0.1025
vn 0.6823 0.6981 0.2169
vn 0.3089 -0.1412 -0.9406
vn 0.2857 -0.2095 -0.9351
vn -0.2266 -0.9552 0.1905
vn 0.0434 -0.1076 0.9932
vn 0.8560 0.4212 0.2996
vn 0.6510 -0.4766 -0.5907
vn -0.4064 -0.8807 0.2432
vn -0.1814 0.0753 0.9805
vn 0.4803 0.2621 0.8370
vn -0.5304 -0.7667 0.3617
vn -0.3645 0.0756 0.9281
vn -0.0354 -0.9789 -0.2013
vn 0.4014 -0.8186 -0.4108
vn 0.0898 0.7598 0.6439
vn 0.3491 -0.0272 0.9367
vn 0.2485 0.8619 0.4419
vn -0.0164 0.4960 -0.8681
vn 0.0955 0.4936 -0.8644
vn -0.2619 -0.8001 -0.5396
vn -0.2024 -0.6688 -0.7154
vn 0.0436 -0.9989 -0.0183
vn 0.3507 0.9147 -0.2007
vn 0.2489 0.9654 -0.0782
vn 0.3551 -0.8652 0.3540
vn -0.9081 -0.4188 -0.0022
vn -0.8383 -0.5339 -0.1104
vn -0.7883 -0.6131 -0.0511
vn -0.7603 -0.6449 -0.0774
vn -0.7241 -0.5688 0.3901
vn 0.7854 -0.2339 0.5731
vn 0.0000 -0.5296 0.8482
vn 0.9081 -0.4188 -0.0022
vn 0.8383 -0.5339 -0.1104
vn 0.7883 -0.6131 -0.0511
vn 0.7603 -0.6449 -0.0774
vn 0.7241 -0.5688 0.3901
usemtl Default_OBJ
s 1
f 1/1/1 2/2/2 3/3/3 4/4/4
f 5/5/5 1/1/1 4/4/4 6/6/6
f 5/5/5 6/6/6 7/7/7 8/8/8
f 8/8/8 7/7/7 9/9/9 10/10/10
f 10/10/10 9/9/9 11/11/11 12/12/12
f 2/13/2 12/12/12 11/11/11 3/14/3
f 13/15/13 14/16/14 15/17/15 16/18/16
f 15/17/15 14/16/14 17/19/17 18/20/18
f 18/20/18 17/19/17 19/21/19 20/22/20
f 20/22/20 19/21/19 21/23/21 22/24/22
f 21/23/21 23/25/23 24/26/24 22/24/22
f 23/25/23 13/27/13 16/28/16 24/26/24
f 2/2/2 1/1/1 25/29/25 26/30/26
f 1/1/1 5/5/5 27/31/27 25/29/25
f 27/31/27 5/5/5 8/8/8 28/32/28
f 8/8/8 10/10/10 29/33/29 28/32/28
f 29/33/29 10/10/10 12/12/12 30/34/30
f 12/12/12 2/13/2 26/35/26 30/34/30
f 31/36/31 32/37/32 16/18/16 15/17/15
f 32/38/32 33/39/33 24/26/24 16/28/16
f 34/40/34 35/41/35 18/20/18 20/22/20
f 36/42/36 34/40/34 20/22/20 22/24/22
f 37/43/37 36/42/36 22/24/22 24/26/24
f 38/44/38 37/43/37 24/26/24 33/39/33
f 39/45/39 40/46/40 15/17/15 18/20/18
f 40/46/40 41/47/41 31/36/31 15/17/15
f 42/48/42 43/49/43 41/47/41 40/46/40
f 44/50/44 45/51/45 6/6/6 4/4/4
f 46/52/46 47/53/47 11/11/11 9/9/9
f 48/54/48 49/55/49 47/56/47 46/57/46
f 50/58/50 51/59/51 44/60/44 3/61/3
f 51/62/51 52/63/52 45/64/45 44/65/44
f 52/63/52 53/66/53 7/67/7 45/64/45
f 54/68/54 50/58/50 3/61/3 55/69/55
f 53/66/53 56/70/56 57/71/57 7/67/7
f 56/70/56 58/72/58 48/54/48 57/71/57
f 58/72/58 59/73/59 49/55/49 48/54/48
f 59/73/59 54/68/54 55/69/55 49/55/49
f 51/74/51 50/75/50 53/76/53 52/77/52
f 56/78/56 54/79/54 59/80/59 58/81/58
f 53/76/53 50/75/50 54/79/54 56/78/56
f 60/82/60 61/83/61 35/84/35 34/85/34
f 62/86/62 60/87/60 34/88/34 36/89/36
f 63/90/63 62/86/62 36/89/36 37/91/37
f 64/92/64 63/90/63 37/91/37 38/93/38
f 61/83/61 65/94/65 42/95/42 35/84/35
f 65/94/65 66/96/66 43/97/43 42/95/42
f 67/98/67 68/99/68 69/100/69 70/101/70
f 69/102/69 68/103/68 71/104/71 72/105/72
f 71/104/71 73/106/73 74/107/74 72/105/72
f 73/106/73 75/108/75 76/109/76 74/107/74
f 77/110/77 78/111/78 67/98/67 70/101/70
f 79/112/79 80/113/80 78/111/78 77/110/77
f 61/83/61 60/82/60 81/114/81 82/115/82
f 60/87/60 62/86/62 83/116/83 81/117/81
f 62/86/62 63/90/63 84/118/84 83/116/83
f 63/90/63 64/92/64 85/119/85 84/118/84
f 82/115/82 86/120/86 65/94/65 61/83/61
f 66/96/66 65/94/65 86/120/86 87/121/87
f 82/115/82 81/114/81 68/99/68 67/98/67
f 81/117/81 83/116/83 71/104/71 68/103/68
f 83/116/83 84/118/84 73/106/73 71/104/71
f 84/118/84 85/119/85 75/108/75 73/106/73
f 86/120/86 82/115/82 67/98/67 78/111/78
f 87/121/87 86/120/86 78/111/78 80/113/80
f 88/122/88 89/123/89 72/105/72 74/107/74
f 90/124/90 88/122/88 74/107/74 76/109/76
f 91/125/91 92/126/92 77/110/77 70/101/70
f 92/126/92 93/127/93 79/112/79 77/110/77
f 94/128/94 92/126/92 91/125/91 95/129/95
f 94/128/94 95/129/95 89/123/89 88/122/88
f 96/130/96 70/101/70 69/100/69 97/131/97
f 98/132/98 97/133/97 69/102/69 72/105/72
f 98/132/98 72/105/72 89/123/89 99/134/99
f 99/134/99 89/123/89 95/129/95 100/135/100
f 101/136/101 100/135/100 95/129/95 91/125/91
f 96/130/96 101/136/101 91/125/91 70/101/70
f 102/137/102 103/138/103 104/139/104 105/140/105
f 104/141/104 106/142/106 107/143/107 105/144/105
f 107/143/107 106/142/106 108/145/108 109/146/109
f 109/146/109 108/145/108 110/147/110 111/148/111
f 110/147/110 112/149/112 113/150/113 111/148/111
f 112/149/112 103/138/103 102/137/102 113/150/113
f 114/151/114 96/130/96 97/131/97 115/152/115
f 98/132/98 99/134/99 108/145/108 106/142/106
f 100/135/100 101/136/101 116/153/116 117/154/117
f 116/153/116 101/136/101 96/130/96 114/151/114
f 103/138/103 114/151/114 115/152/115 104/139/104
f 117/154/117 116/153/116 112/149/112 110/147/110
f 116/153/116 114/151/114 103/138/103 112/149/112
f 28/32/28 29/33/29 118/155/118 119/156/119
f 29/33/29 30/34/30 120/157/120 118/155/118
f 30/34/30 26/35/26 121/158/121 120/157/120
f 25/29/25 27/31/27 17/19/17 14/16/14
f 19/21/19 119/156/119 118/155/118 21/23/21
f 118/155/118 120/157/120 23/25/23 21/23/21
f 120/157/120 121/158/121 13/27/13 23/25/23
f 122/159/122 123/160/123 88/122/88 90/124/90
f 124/161/124 125/162/125 93/127/93 92/126/92
f 123/160/123 126/163/126 94/128/94 88/122/88
f 126/163/126 124/161/124 92/126/92 94/128/94
f 127/164/127 128/165/128 129/166/129 130/167/130
f 127/164/127 130/167/130 131/168/131 132/169/132
f 132/170/132 131/171/131 133/172/133 134/173/134
f 128/174/128 134/173/134 133/172/133 129/175/129
f 135/176/135 136/177/136 137/178/137 138/179/138
f 137/178/137 136/177/136 139/180/139 140/181/140
f 138/179/138 137/178/137 141/182/141 142/183/142
f 141/182/141 137/178/137 140/181/140 143/184/143
f 135/176/135 128/165/128 127/164/127 136/177/136
f 127/164/127 132/169/132 139/180/139 136/177/136
f 142/183/142 141/182/141 144/185/144 145/186/145
f 144/185/144 141/182/141 143/184/143 146/187/146
f 146/188/146 143/189/143 147/190/147 148/191/148
f 147/190/147 142/192/142 145/193/145 148/191/148
f 139/194/139 134/173/134 149/195/149 140/196/140
f 149/195/149 134/173/134 135/197/135 138/198/138
f 140/196/140 149/195/149 147/190/147 143/189/143
f 147/190/147 149/195/149 138/198/138 142/192/142
f 150/199/150 151/200/151 131/168/131 152/201/152
f 150/199/150 152/201/152 153/202/153 154/203/154
f 154/204/154 153/205/153 155/206/155 156/207/156
f 151/208/151 156/207/156 155/206/155 131/171/131
f 157/209/157 158/210/158 159/211/159 160/212/160
f 159/211/159 158/210/158 161/213/161 162/214/162
f 160/212/160 159/211/159 163/215/163 164/216/164
f 163/215/163 159/211/159 162/214/162 165/217/165
f 157/209/157 151/200/151 150/199/150 158/210/158
f 150/199/150 154/203/154 161/213/161 158/210/158
f 164/216/164 163/215/163 166/218/166 167/219/167
f 166/218/166 163/215/163 165/217/165 168/220/168
f 168/221/168 165/222/165 169/223/169 170/224/170
f 169/223/169 164/225/164 167/226/167 170/224/170
f 161/227/161 156/207/156 171/228/171 162/229/162
f 171/228/171 156/207/156 157/230/157 160/231/160
f 162/229/162 171/228/171 169/223/169 165/222/165
f 169/223/169 171/228/171 160/231/160 164/225/164
f 172/232/172 173/233/173 153/202/153 174/234/174
f 172/232/172 174/234/174 175/235/175 176/236/176
f 176/237/176 175/238/175 177/239/177 178/240/178
f 173/241/173 178/240/178 177/239/177 153/205/153
f 179/242/179 180/243/180 181/244/181 182/245/182
f 181/244/181 180/243/180 183/246/183 184/247/184
f 182/245/182 181/244/181 185/248/185 186/249/186
f 185/248/185 181/244/181 184/247/184 187/250/187
f 179/242/179 173/233/173 172/232/172 180/243/180
f 172/232/172 176/236/176 183/246/183 180/243/180
f 186/249/186 185/248/185 188/251/188 189/252/189
f 188/251/188 185/248/185 187/250/187 190/253/190
f 190/254/190 187/255/187 191/256/191 192/257/192
f 191/256/191 186/258/186 189/259/189 192/257/192
f 183/260/183 178/240/178 193/261/193 184/262/184
f 193/261/193 178/240/178 179/263/179 182/264/182
f 184/262/184 193/261/193 191/256/191 187/255/187
f 191/256/191 193/261/193 182/264/182 186/258/186
f 194/265/194 195/266/195 175/235/175 196/267/196
f 194/265/194 196/267/196 197/268/197 198/269/198
f 198/269/198 197/268/197 199/270/199 200/271/200
f 195/272/195 200/271/200 199/270/199 175/238/175
f 201/273/201 202/274/202 203/275/203 204/276/204
f 203/275/203 202/274/202 205/277/205 206/278/206
f 204/276/204 203/275/203 207/279/207 208/280/208
f 207/279/207 203/275/203 206/278/206 209/281/209
f 201/273/201 195/266/195 194/265/194 202/274/202
f 194/265/194 198/269/198 205/277/205 202/274/202
f 208/280/208 207/279/207 210/282/210 211/283/211
f 210/282/210 207/279/207 209/281/209 212/284/212
f 212/284/212 209/281/209 213/285/213 214/286/214
f 213/285/213 208/287/208 211/288/211 214/286/214
f 205/277/205 200/271/200 215/289/215 206/278/206
f 215/289/215 200/271/200 201/290/201 204/291/204
f 206/278/206 215/289/215 213/285/213 209/281/209
f 213/285/213 215/289/215 204/291/204 208/287/208
f 216/292/216 217/293/217 218/294/218 219/295/219
f 218/294/218 217/293/217 220/296/220 221/297/221
f 222/298/222 221/299/221 220/300/220 223/301/223
f 216/302/216 219/303/219 222/298/222 223/301/223
f 219/295/219 218/294/218 224/304/224 225/305/225
f 224/304/224 218/294/218 221/297/221 226/306/226
f 226/307/226 221/299/221 222/298/222 227/308/227
f 222/298/222 219/303/219 225/309/225 227/308/227
f 228/310/228 229/311/229 217/293/217 216/292/216
f 229/311/229 230/312/230 220/296/220 217/293/217
f 231/313/231 232/314/232 229/311/229 228/310/228
f 233/315/233 231/316/231 228/317/228 234/318/234
f 232/314/232 235/319/235 230/312/230 229/311/229
f 235/319/235 236/320/236 237/321/237 230/312/230
f 238/322/238 239/323/239 240/324/240 241/325/241
f 239/323/239 238/322/238 113/326/113 102/327/102
f 240/324/240 239/323/239 233/315/233 242/328/242
f 236/320/236 235/319/235 243/329/243 244/330/244
f 243/329/243 238/322/238 241/325/241 244/330/244
f 230/331/230 234/318/234 223/301/223 220/300/220
f 228/317/228 216/302/216 223/301/223 234/318/234
f 245/332/245 234/318/234 230/331/230 237/333/237
f 129/166/129 237/321/237 236/320/236 130/167/130
f 245/332/245 237/333/237 129/175/129 133/172/133
f 242/328/242 233/315/233 234/318/234 245/332/245
f 242/328/242 245/332/245 133/172/133 155/206/155
f 109/334/109 235/319/235 232/314/232 107/335/107
f 231/316/231 233/315/233 105/336/105 107/337/107
f 233/315/233 239/323/239 102/327/102 105/336/105
f 177/239/177 199/270/199 240/324/240 242/328/242
f 113/326/113 238/322/238 243/329/243 111/338/111
f 243/329/243 235/319/235 109/334/109 111/338/111
f 130/167/130 236/320/236 244/330/244 152/201/152
f 244/330/244 241/325/241 196/267/196 174/234/174
f 246/339/246 125/340/125 124/341/124 247/342/247
f 248/343/248 249/344/249 126/345/126 123/346/123
f 247/342/247 124/341/124 126/345/126 249/344/249
f 246/339/246 250/347/250 251/348/251 125/340/125
f 252/349/252 253/350/253 254/351/254 255/352/255
f 250/347/250 255/352/255 254/351/254 251/348/251
f 256/353/256 257/354/257 258/355/258 259/356/259
f 256/353/256 260/357/260 261/358/261 257/354/257
f 262/359/262 256/353/256 259/356/259 263/360/263
f 260/357/260 256/353/256 262/361/262 264/362/264
f 262/359/262 263/360/263 265/363/265 266/364/266
f 267/365/267 264/362/264 262/361/262 266/366/266
f 246/339/246 247/342/247 258/355/258 257/354/257
f 268/367/268 249/344/249 248/343/248 265/363/265
f 258/355/258 247/342/247 249/344/249 268/367/268
f 261/358/261 250/347/250 246/339/246 257/354/257
f 252/349/252 255/352/255 269/368/269 267/365/267
f 255/352/255 250/347/250 261/358/261 269/368/269
f 270/369/270 266/370/266 265/371/265 271/372/271
f 270/369/270 272/373/272 267/374/267 266/370/266
f 273/375/273 274/376/274 275/377/275 276/378/276
f 275/379/275 277/380/277 278/381/278 276/382/276
f 279/383/279 274/376/274 273/375/273 280/384/280
f 281/385/281 282/386/282 280/384/280 283/387/283
f 284/388/284 285/389/285 281/385/281 283/387/283
f 281/385/281 270/369/270 271/372/271 282/386/282
f 272/373/272 270/369/270 281/385/281 285/389/285
f 286/390/286 287/391/287 273/375/273 276/378/276
f 288/392/288 286/393/286 276/382/276 278/381/278
f 287/391/287 289/394/289 280/384/280 273/375/273
f 290/395/290 288/392/288 278/381/278 284/388/284
f 289/394/289 291/396/291 283/387/283 280/384/280
f 291/396/291 290/395/290 284/388/284 283/387/283
f 292/397/292 287/398/287 286/399/286 293/400/293
f 294/401/294 293/402/293 286/403/286 288/404/288
f 295/405/295 289/406/289 287/398/287 292/397/292
f 296/407/296 294/401/294 288/404/288 290/408/290
f 295/405/295 297/409/297 291/410/291 289/406/289
f 296/407/296 290/408/290 291/410/291 297/409/297
f 298/411/298 299/412/299 278/381/278 277/380/277
f 300/413/300 301/414/301 302/415/302 303/416/303
f 304/417/304 300/413/300 303/416/303 305/418/305
f 306/419/306 304/417/304 305/418/305 307/420/307
f 308/421/308 306/419/306 307/420/307 309/422/309
f 310/423/310 308/421/308 309/422/309 311/424/311
f 301/414/301 310/425/310 311/426/311 302/415/302
f 310/427/310 301/428/301 306/429/306 308/430/308
f 306/429/306 301/428/301 300/431/300 304/432/304
f 312/433/312 313/434/313 303/416/303 302/415/302
f 298/435/298 312/433/312 302/415/302 311/426/311
f 299/436/299 298/437/298 311/424/311 309/422/309
f 314/438/314 299/436/299 309/422/309 307/420/307
f 315/439/315 314/438/314 307/420/307 305/418/305
f 313/434/313 315/439/315 305/418/305 303/416/303
f 316/440/316 292/397/292 293/400/293 317/441/317
f 293/402/293 294/401/294 318/442/318 317/443/317
f 319/444/319 295/405/295 292/397/292 316/440/316
f 294/401/294 296/407/296 320/445/320 318/442/318
f 297/409/297 295/405/295 319/444/319 321/446/321
f 320/445/320 296/407/296 297/409/297 321/446/321
f 322/447/322 323/448/323 324/449/324 325/450/325
f 326/451/326 327/452/327 323/448/323 322/447/322
f 326/451/326 328/453/328 329/454/329 327/452/327
f 328/453/328 330/455/330 331/456/331 329/454/329
f 330/455/330 332/457/332 333/458/333 331/456/331
f 325/459/325 324/460/324 333/458/333 332/457/332
f 334/461/334 335/462/335 336/463/336 337/464/337
f 336/463/336 338/465/338 339/466/339 337/464/337
f 338/465/338 340/467/340 341/468/341 339/466/339
f 340/467/340 342/469/342 343/470/343 341/468/341
f 343/470/343 342/469/342 344/471/344 345/472/345
f 345/472/345 344/471/344 335/473/335 334/474/334
f 325/450/325 346/475/346 347/476/347 322/447/322
f 322/447/322 347/476/347 348/477/348 326/451/326
f 348/477/348 349/478/349 328/453/328 326/451/326
f 328/453/328 349/478/349 350/479/350 330/455/330
f 350/479/350 351/480/351 332/457/332 330/455/330
f 332/457/332 351/480/351 346/481/346 325/459/325
f 31/36/31 336/463/336 335/462/335 32/37/32
f 32/38/32 335/473/335 344/471/344 33/39/33
f 352/482/352 340/467/340 338/465/338 353/483/353
f 354/484/354 342/469/342 340/467/340 352/482/352
f 355/485/355 344/471/344 342/469/342 354/484/354
f 38/44/38 33/39/33 344/471/344 355/485/355
f 356/486/356 338/465/338 336/463/336 357/487/357
f 357/487/357 336/463/336 31/36/31 41/47/41
f 358/488/358 357/487/357 41/47/41 43/49/43
f 359/489/45 323/448/323 327/452/327 360/490/44
f 361/491/47 331/456/331 333/458/333 362/492/46
f 363/493/359 361/494/47 362/495/46 364/496/360
f 365/497/361 324/498/324 359/499/45 366/500/52
f 366/501/52 359/502/45 360/503/44 367/504/51
f 367/504/51 360/503/44 329/505/329 368/506/362
f 369/507/363 370/508/364 324/498/324 365/497/361
f 368/506/362 329/505/329 371/509/365 372/510/366
f 372/510/366 371/509/365 363/493/359 373/511/367
f 373/511/367 363/493/359 364/496/360 374/512/368
f 374/512/368 364/496/360 370/508/364 369/507/363
f 366/513/52 367/514/51 368/515/362 365/516/361
f 372/517/366 373/518/367 374/519/368 369/520/363
f 368/515/362 372/517/366 369/520/363 365/516/361
f 375/521/369 352/522/352 353/523/353 376/524/370
f 377/525/371 354/526/354 352/527/352 375/528/369
f 378/529/372 355/530/355 354/526/354 377/525/371
f 64/92/64 38/93/38 355/530/355 378/529/372
f 376/524/370 353/523/353 358/531/358 379/532/373
f 379/532/373 358/531/358 43/97/43 66/96/66
f 380/533/374 381/534/375 382/535/376 383/536/377
f 382/537/376 384/538/378 385/539/379 383/540/377
f 385/539/379 384/538/378 386/541/380 387/542/381
f 387/542/381 386/541/380 76/109/76 75/108/75
f 388/543/382 381/534/375 380/533/374 389/544/383
f 79/112/79 388/543/382 389/544/383 80/113/80
f 376/524/370 390/545/384 391/546/385 375/521/369
f 375/528/369 391/547/385 392/548/386 377/525/371
f 377/525/371 392/548/386 393/549/387 378/529/372
f 378/529/372 393/549/387 85/119/85 64/92/64
f 390/545/384 376/524/370 379/532/373 394/550/388
f 66/96/66 87/121/87 394/550/388 379/532/373
f 390/545/384 380/533/374 383/536/377 391/546/385
f 391/547/385 383/540/377 385/539/379 392/548/386
f 392/548/386 385/539/379 387/542/381 393/549/387
f 393/549/387 387/542/381 75/108/75 85/119/85
f 394/550/388 389/544/383 380/533/374 390/545/384
f 87/121/87 80/113/80 389/544/383 394/550/388
f 395/551/389 386/541/380 384/538/378 396/552/390
f 90/124/90 76/109/76 386/541/380 395/551/389
f 397/553/391 381/534/375 388/543/382 398/554/392
f 398/554/392 388/543/382 79/112/79 93/127/93
f 399/555/393 400/556/394 397/553/391 398/554/392
f 399/555/393 395/551/389 396/552/390 400/556/394
f 401/557/395 402/558/396 382/535/376 381/534/375
f 403/559/397 384/538/378 382/537/376 402/560/396
f 403/559/397 404/561/398 396/552/390 384/538/378
f 404/561/398 405/562/399 400/556/394 396/552/390
f 406/563/400 397/553/391 400/556/394 405/562/399
f 401/557/395 381/534/375 397/553/391 406/563/400
f 407/564/401 408/565/402 409/566/403 410/567/404
f 409/568/403 408/569/402 411/570/405 412/571/406
f 411/570/405 413/572/407 414/573/408 412/571/406
f 413/572/407 415/574/409 416/575/410 414/573/408
f 416/575/410 415/574/409 417/576/411 418/577/412
f 418/577/412 417/576/411 407/564/401 410/567/404
f 419/578/413 420/579/414 402/558/396 401/557/395
f 403/559/397 412/571/406 414/573/408 404/561/398
f 405/562/399 421/580/415 422/581/416 406/563/400
f 422/581/416 419/578/413 401/557/395 406/563/400
f 410/567/404 409/566/403 420/579/414 419/578/413
f 421/580/415 416/575/410 418/577/412 422/581/416
f 422/581/416 418/577/412 410/567/404 419/578/413
f 349/478/349 423/582/417 424/583/418 350/479/350
f 350/479/350 424/583/418 425/584/419 351/480/351
f 351/480/351 425/584/419 426/585/420 346/481/346
f 347/476/347 337/464/337 339/466/339 348/477/348
f 341/468/341 343/470/343 424/583/418 423/582/417
f 424/583/418 343/470/343 345/472/345 425/584/419
f 425/584/419 345/472/345 334/474/334 426/585/420
f 122/159/122 90/124/90 395/551/389 253/586/253
f 251/587/251 398/554/392 93/127/93 125/162/125
f 253/586/253 395/551/389 399/555/393 254/588/254
f 254/588/254 399/555/393 398/554/392 251/587/251
f 427/589/421 428/590/422 429/591/423 430/592/424
f 427/589/421 431/593/425 432/594/426 428/590/422
f 431/595/425 433/596/427 434/597/428 432/598/426
f 430/599/424 429/600/423 434/597/428 433/596/427
f 435/601/429 436/602/430 437/603/431 438/604/432
f 437/603/431 439/605/433 440/606/434 438/604/432
f 436/602/430 441/607/435 442/608/436 437/603/431
f 442/608/436 443/609/437 439/605/433 437/603/431
f 435/601/429 438/604/432 427/589/421 430/592/424
f 427/589/421 438/604/432 440/606/434 431/593/425
f 441/607/435 444/610/438 445/611/439 442/608/436
f 445/611/439 446/612/440 443/609/437 442/608/436
f 446/613/440 447/614/441 448/615/442 443/616/437
f 448/615/442 447/614/441 444/617/438 441/618/435
f 440/619/434 439/620/433 449/621/443 433/596/427
f 449/621/443 436/622/430 435/623/429 433/596/427
f 439/620/433 443/616/437 448/615/442 449/621/443
f 448/615/442 441/618/435 436/622/430 449/621/443
f 450/624/444 451/625/445 432/594/426 452/626/446
f 450/624/444 453/627/447 454/628/448 451/625/445
f 453/629/447 455/630/449 456/631/450 454/632/448
f 452/633/446 432/598/426 456/631/450 455/630/449
f 457/634/451 458/635/452 459/636/453 460/637/454
f 459/636/453 461/638/455 462/639/456 460/637/454
f 458/635/452 463/640/457 464/641/458 459/636/453
f 464/641/458 465/642/459 461/638/455 459/636/453
f 457/634/451 460/637/454 450/624/444 452/626/446
f 450/624/444 460/637/454 462/639/456 453/627/447
f 463/640/457 466/643/460 467/644/461 464/641/458
f 467/644/461 468/645/462 465/642/459 464/641/458
f 468/646/462 469/647/463 470/648/464 465/649/459
f 470/648/464 469/647/463 466/650/460 463/651/457
f 462/652/456 461/653/455 471/654/465 455/630/449
f 471/654/465 458/655/452 457/656/451 455/630/449
f 461/653/455 465/649/459 470/648/464 471/654/465
f 470/648/464 463/651/457 458/655/452 471/654/465
f 472/657/466 473/658/467 454/628/448 474/659/468
f 472/657/466 475/660/469 476/661/470 473/658/467
f 475/662/469 477/663/471 478/664/472 476/665/470
f 474/666/468 454/632/448 478/664/472 477/663/471
f 479/667/473 480/668/474 481/669/475 482/670/476
f 481/669/475 483/671/477 484/672/478 482/670/476
f 480/668/474 485/673/479 486/674/480 481/669/475
f 486/674/480 487/675/481 483/671/477 481/669/475
f 479/667/473 482/670/476 472/657/466 474/659/468
f 472/657/466 482/670/476 484/672/478 475/660/469
f 485/673/479 488/676/482 489/677/483 486/674/480
f 489/677/483 490/678/484 487/675/481 486/674/480
f 490/679/484 491/680/485 492/681/486 487/682/481
f 492/681/486 491/680/485 488/683/482 485/684/479
f 484/685/478 483/686/477 493/687/487 477/663/471
f 493/687/487 480/688/474 479/689/473 477/663/471
f 483/686/477 487/682/481 492/681/486 493/687/487
f 492/681/486 485/684/479 480/688/474 493/687/487
f 494/690/488 495/691/489 476/661/470 496/692/490
f 494/690/488 497/693/491 498/694/492 495/691/489
f 497/693/491 499/695/493 500/696/494 498/694/492
f 496/697/490 476/665/470 500/696/494 499/695/493
f 501/698/495 502/699/496 503/700/497 504/701/498
f 503/700/497 505/702/499 506/703/500 504/701/498
f 502/699/496 507/704/501 508/705/502 503/700/497
f 508/705/502 509/706/503 505/702/499 503/700/497
f 501/698/495 504/701/498 494/690/488 496/692/490
f 494/690/488 504/701/498 506/703/500 497/693/491
f 507/704/501 510/707/504 511/708/505 508/705/502
f 511/708/505 512/709/506 509/706/503 508/705/502
f 512/709/506 513/710/507 514/711/508 509/706/503
f 514/711/508 513/710/507 510/712/504 507/713/501
f 506/703/500 505/702/499 515/714/509 499/695/493
f 515/714/509 502/715/496 501/716/495 499/695/493
f 505/702/499 509/706/503 514/711/508 515/714/509
f 514/711/508 507/713/501 502/715/496 515/714/509
f 516/717/510 517/718/511 518/719/512 519/720/513
f 518/719/512 520/721/514 521/722/515 519/720/513
f 522/723/516 523/724/517 521/725/515 520/726/514
f 516/727/510 523/724/517 522/723/516 517/728/511
f 517/718/511 524/729/518 525/730/519 518/719/512
f 525/730/519 526/731/520 520/721/514 518/719/512
f 526/732/520 527/733/521 522/723/516 520/726/514
f 522/723/516 527/733/521 524/734/518 517/728/511
f 528/735/522 516/717/510 519/720/513 529/736/523
f 529/736/523 519/720/513 521/722/515 530/737/524
f 531/738/525 528/735/522 529/736/523 532/739/526
f 533/740/527 534/741/528 528/742/522 531/743/525
f 532/739/526 529/736/523 530/737/524 535/744/529
f 535/744/529 530/737/524 536/745/530 537/746/531
f 538/747/532 539/748/533 540/749/534 541/750/535
f 541/750/535 407/751/401 417/752/411 538/747/532
f 540/749/534 542/753/536 533/740/527 541/750/535
f 537/746/531 543/754/537 544/755/538 535/744/529
f 544/755/538 543/754/537 539/748/533 538/747/532
f 530/756/524 521/725/515 523/724/517 534/741/528
f 528/742/522 534/741/528 523/724/517 516/727/510
f 545/757/539 536/758/530 530/756/524 534/741/528
f 429/591/423 428/590/422 537/746/531 536/745/530
f 545/757/539 434/597/428 429/600/423 536/758/530
f 542/753/536 545/757/539 534/741/528 533/740/527
f 542/753/536 456/631/450 434/597/428 545/757/539
f 413/759/407 411/760/405 532/739/526 535/744/529
f 531/743/525 411/761/405 408/762/402 533/740/527
f 533/740/527 408/762/402 407/751/401 541/750/535
f 478/664/472 542/753/536 540/749/534 500/696/494
f 417/752/411 415/763/409 544/755/538 538/747/532
f 544/755/538 415/763/409 413/759/407 535/744/529
f 428/590/422 451/625/445 543/754/537 537/746/531
f 543/754/537 473/658/467 495/691/489 539/748/533
f 18/20/18 35/41/35 39/45/39
f 39/45/39 35/41/35 42/48/42
f 40/46/40 39/45/39 42/48/42
f 4/4/4 3/3/3 44/50/44
f 7/7/7 6/6/6 45/51/45
f 9/9/9 7/7/7 46/52/46
f 3/14/3 11/11/11 47/53/47
f 46/57/46 57/71/57 48/54/48
f 3/61/3 47/56/47 55/69/55
f 46/57/46 7/67/7 57/71/57
f 47/56/47 49/55/49 55/69/55
f 98/132/98 115/764/115 97/133/97
f 100/135/100 117/154/117 99/134/99
f 106/142/106 104/141/104 115/764/115
f 117/154/117 110/147/110 108/145/108
f 117/154/117 108/145/108 99/134/99
f 98/132/98 106/142/106 115/764/115
f 25/29/25 121/765/121 26/30/26
f 28/32/28 119/156/119 27/31/27
f 25/29/25 14/16/14 121/765/121
f 119/156/119 17/19/17 27/31/27
f 14/16/14 13/15/13 121/765/121
f 119/156/119 19/21/19 17/19/17
f 145/186/145 144/185/144 546/766/540
f 144/185/144 146/187/146 546/766/540
f 146/188/146 148/191/148 546/767/540
f 148/191/148 145/193/145 546/767/540
f 134/173/134 139/194/139 132/170/132
f 128/174/128 135/197/135 134/173/134
f 167/219/167 166/218/166 547/768/541
f 166/218/166 168/220/168 547/768/541
f 168/221/168 170/224/170 547/769/541
f 170/224/170 167/226/167 547/769/541
f 156/207/156 161/227/161 154/204/154
f 151/208/151 157/230/157 156/207/156
f 189/252/189 188/251/188 548/770/542
f 188/251/188 190/253/190 548/770/542
f 190/254/190 192/257/192 548/771/542
f 192/257/192 189/259/189 548/771/542
f 178/240/178 183/260/183 176/237/176
f 173/241/173 179/263/179 178/240/178
f 211/283/211 210/282/210 549/772/543
f 210/282/210 212/284/212 549/772/543
f 212/284/212 214/286/214 549/773/543
f 214/286/214 211/288/211 549/773/543
f 200/271/200 205/277/205 198/269/198
f 195/272/195 201/290/201 200/271/200
f 225/305/225 224/304/224 550/774/544
f 224/304/224 226/306/226 550/774/544
f 226/307/226 227/308/227 550/775/544
f 227/308/227 225/309/225 550/775/544
f 231/313/231 107/335/107 232/314/232
f 177/239/177 155/206/155 153/205/153
f 174/234/174 153/202/153 152/201/152
f 155/206/155 133/172/133 131/171/131
f 152/201/152 131/168/131 130/167/130
f 199/270/199 177/239/177 175/238/175
f 196/267/196 175/235/175 174/234/174
f 240/324/240 197/268/197 241/325/241
f 241/325/241 197/268/197 196/267/196
f 242/328/242 155/206/155 177/239/177
f 152/201/152 244/330/244 174/234/174
f 240/324/240 199/270/199 197/268/197
f 265/363/265 263/360/263 268/367/268
f 269/368/269 264/362/264 267/365/267
f 263/360/263 259/356/259 268/367/268
f 269/368/269 260/357/260 264/362/264
f 259/356/259 258/355/258 268/367/268
f 269/368/269 261/358/261 260/357/260
f 123/776/123 275/377/275 274/376/274
f 122/777/122 253/778/253 275/379/275
f 248/779/248 123/776/123 279/383/279
f 253/778/253 551/780/545 277/380/277
f 265/371/265 248/779/248 271/372/271
f 252/781/252 285/389/285 551/780/545
f 279/383/279 280/384/280 282/386/282
f 248/779/248 279/383/279 282/386/282
f 252/781/252 272/373/272 285/389/285
f 248/779/248 282/386/282 271/372/271
f 252/781/252 267/374/267 272/373/272
f 123/776/123 274/376/274 279/383/279
f 253/778/253 252/781/252 551/780/545
f 123/776/123 122/782/122 275/377/275
f 253/778/253 277/380/277 275/379/275
f 316/783/316 317/784/317 552/785/546
f 317/784/317 318/786/318 552/785/546
f 319/444/319 316/783/316 552/785/546
f 318/786/318 320/445/320 552/785/546
f 321/446/321 319/444/319 552/785/546
f 320/445/320 321/446/321 552/785/546
f 284/388/284 278/381/278 314/787/314
f 277/380/277 312/788/312 298/411/298
f 551/780/545 313/789/313 312/788/312
f 285/389/285 315/790/315 313/789/313
f 284/388/284 314/787/314 315/790/315
f 278/381/278 299/412/299 314/787/314
f 551/780/545 285/389/285 313/789/313
f 277/380/277 551/780/545 312/788/312
f 285/389/285 284/388/284 315/790/315
f 338/465/338 356/486/356 353/483/353
f 356/486/356 358/488/358 353/483/353
f 357/487/357 358/488/358 356/486/356
f 323/448/323 359/489/45 324/449/324
f 329/454/329 360/490/44 327/452/327
f 331/456/331 361/491/47 329/454/329
f 324/460/324 362/492/46 333/458/333
f 361/494/47 363/493/359 371/509/365
f 324/498/324 370/508/364 362/495/46
f 361/494/47 371/509/365 329/505/329
f 362/495/46 370/508/364 364/496/360
f 403/559/397 402/560/396 420/791/414
f 405/562/399 404/561/398 421/580/415
f 412/571/406 420/791/414 409/568/403
f 421/580/415 414/573/408 416/575/410
f 421/580/415 404/561/398 414/573/408
f 403/559/397 420/791/414 412/571/406
f 347/476/347 346/475/346 426/792/420
f 349/478/349 348/477/348 423/582/417
f 347/476/347 426/792/420 337/464/337
f 423/582/417 348/477/348 339/466/339
f 337/464/337 426/792/420 334/461/334
f 423/582/417 339/466/339 341/468/341
f 444/610/438 553/793/547 445/611/439
f 445/611/439 553/793/547 446/612/440
f 446/613/440 553/794/547 447/614/441
f 447/614/441 553/794/547 444/617/438
f 433/596/427 431/595/425 440/619/434
f 430/599/424 433/596/427 435/623/429
f 466/643/460 554/795/548 467/644/461
f 467/644/461 554/795/548 468/645/462
f 468/646/462 554/796/548 469/647/463
f 469/647/463 554/796/548 466/650/460
f 455/630/449 453/629/447 462/652/456
f 452/633/446 455/630/449 457/656/451
f 488/676/482 555/797/549 489/677/483
f 489/677/483 555/797/549 490/678/484
f 490/679/484 555/798/549 491/680/485
f 491/680/485 555/798/549 488/683/482
f 477/663/471 475/662/469 484/685/478
f 474/666/468 477/663/471 479/689/473
f 510/707/504 556/799/550 511/708/505
f 511/708/505 556/799/550 512/709/506
f 512/709/506 556/800/550 513/710/507
f 513/710/507 556/800/550 510/712/504
f 499/695/493 497/693/491 506/703/500
f 496/697/490 499/695/493 501/716/495
f 524/729/518 557/801/551 525/730/519
f 525/730/519 557/801/551 526/731/520
f 526/732/520 557/802/551 527/733/521
f 527/733/521 557/802/551 524/734/518
f 531/738/525 532/739/526 411/760/405
f 478/664/472 454/632/448 456/631/450
f 473/658/467 451/625/445 454/628/448
f 456/631/450 432/598/426 434/597/428
f 451/625/445 428/590/422 432/594/426
f 500/696/494 476/665/470 478/664/472
f 495/691/489 473/658/467 476/661/470
f 540/749/534 539/748/533 498/694/492
f 539/748/533 495/691/489 498/694/492
f 542/753/536 478/664/472 456/631/450
f 451/625/445 473/658/467 543/754/537
f 540/749/534 498/694/492 500/696/494
